<svg xmlns="http://www.w3.org/2000/svg" xmlns:xlink="http://www.w3.org/1999/xlink" viewBox="0 0 542.78 464.17"><defs><style>.cls-1{opacity:0.8;filter:url(#luminosity-noclip);}.cls-2{opacity:0.4;}.cls-3{opacity:0.2;}.cls-4,.cls-5{opacity:0.6;}.cls-5{fill:#282832;}.cls-6{fill:#fff;}.cls-7{fill:#231815;}.cls-8{fill:#eb6100;}.cls-9{fill:#c30d23;}.cls-10{fill:#fff462;}.cls-11{mask:url(#mask);}.cls-12{fill:#40220f;}.cls-13{fill:#222;}.cls-14{fill:#d14f3b;}.cls-15{fill:#9f8059;}.cls-16{fill:#fffde5;}.cls-17{fill:#eeb033;}.cls-18{fill:#e99214;}.cls-19{fill:#ebcf5b;}.cls-20{fill:#ea5514;}.cls-21{fill:#f39800;}.cls-22{fill:#6a3906;}.cls-23{fill:#7f4f21;}.cls-24{fill:#956134;}.cls-25{fill:#d0121b;}.cls-26{fill:#0d131a;}.cls-27{fill:none;stroke:#231815;stroke-linecap:round;stroke-miterlimit:10;stroke-width:3.78px;}</style><filter id="luminosity-noclip" x="215.55" y="286.89" width="88.17" height="68.53" filterUnits="userSpaceOnUse" color-interpolation-filters="sRGB"><feFlood flood-color="#fff" result="bg"/><feBlend in="SourceGraphic" in2="bg"/></filter><mask id="mask" x="215.55" y="286.89" width="88.17" height="68.53" maskUnits="userSpaceOnUse"><g class="cls-1"><path class="cls-2" d="M296.73,325.19a6.32,6.32,0,0,1-.18-1.07c0-.15.19-.29.29-.43a6.27,6.27,0,0,1,.32.92C297.18,324.71,297,324.86,296.73,325.19Z"/><path class="cls-2" d="M273.2,352.65l-.68-.7.47-.3.46.82Z"/><path class="cls-2" d="M267.5,315.58c-.26,0-.47.13-.57.06s-.16-.3-.23-.46c.16-.05.36-.19.48-.14S267.36,315.33,267.5,315.58Z"/><path class="cls-2" d="M277.62,341.28c.14.3.28.47.25.61s-.23.23-.36.34c-.06-.13-.18-.26-.17-.39S277.47,341.56,277.62,341.28Z"/><path class="cls-2" d="M297.09,339.86c0-.18-.09-.34,0-.41a1.07,1.07,0,0,1,.42-.34s.17.16.25.25Z"/><path class="cls-2" d="M300,333.46a1.85,1.85,0,0,1-.27-.52c0-.06.25-.25.29-.22a.72.72,0,0,1,.32.37C300.36,333.16,300.16,333.29,300,333.46Z"/><path class="cls-2" d="M292.31,353.78c-.08.22-.16.44-.25.66l-.22-.06c.05-.23.11-.46.17-.69Z"/><path class="cls-2" d="M296.21,318.73c-.26.07-.44.16-.5.11a1.31,1.31,0,0,1-.26-.41c.1-.05.23-.15.28-.12A4.24,4.24,0,0,1,296.21,318.73Z"/><path class="cls-2" d="M285.19,315.56l-.52,0c0-.06,0-.16,0-.16a4.26,4.26,0,0,1,.5,0Z"/><path class="cls-2" d="M291.87,344.88l.74-.28.08.21-.73.28Z"/><path class="cls-2" d="M287.92,301.81a2.06,2.06,0,0,1-.44-.14c-.06,0-.08-.15-.12-.22a1.42,1.42,0,0,1,.36,0C287.78,301.51,287.81,301.62,287.92,301.81Z"/><path class="cls-2" d="M271.06,306.61c-.11,0-.2.1-.26.07s-.13-.11-.19-.18.18-.12.26-.12S271,306.5,271.06,306.61Z"/><path class="cls-2" d="M275.31,338.72c-.1,0-.18.12-.24.11s-.13-.1-.19-.16.15-.14.22-.15S275.22,338.63,275.31,338.72Z"/><path class="cls-2" d="M284.11,334.13c-.18.09-.29.18-.35.16s-.14-.16-.16-.25.13-.17.17-.15S283.94,334,284.11,334.13Z"/><path class="cls-2" d="M291.4,318.21c-.1.06-.18.14-.24.13a.16.16,0,1,1,0-.31C291.27,318,291.32,318.13,291.4,318.21Z"/><path class="cls-2" d="M275.55,311.49l-.28.07a1,1,0,0,1,0-.24s.13-.09.15-.07A1.54,1.54,0,0,1,275.55,311.49Z"/><path class="cls-2" d="M300.57,335.19l-.26.09c0-.08-.08-.17-.06-.23s.13-.08.2-.12Z"/><path class="cls-2" d="M283,350.54l-.34.2c0-.07-.11-.16-.09-.21a.31.31,0,0,1,.19-.18S282.92,350.44,283,350.54Z"/><path class="cls-2" d="M274.3,310.61c-.2.1-.31.2-.37.18s-.15-.15-.21-.24.13-.14.19-.14A2,2,0,0,1,274.3,310.61Z"/><path class="cls-2" d="M275.46,350.87l-.18.21-.21-.24c.06-.06.13-.16.19-.15S275.38,350.8,275.46,350.87Z"/><path class="cls-2" d="M294,326.92a1.29,1.29,0,0,1-.26.08.89.89,0,0,1-.06-.15,2.34,2.34,0,0,1,.24-.09S293.93,326.85,294,326.92Z"/><path class="cls-2" d="M291.44,314a2.12,2.12,0,0,1-.2.12s-.07-.07-.1-.11a1.3,1.3,0,0,1,.18-.15A1.2,1.2,0,0,1,291.44,314Z"/><path class="cls-2" d="M300.57,321.6c-.05,0-.1.09-.15.09s-.1-.06-.15-.09a1,1,0,0,1,.18-.13S300.52,321.55,300.57,321.6Z"/><path class="cls-2" d="M301.43,326.42l.09-.6c0,.09.06.18.08.27A2.38,2.38,0,0,1,301.43,326.42Z"/><path class="cls-2" d="M287.87,350l.07-.13a1.38,1.38,0,0,1,.24.14l-.09.14Z"/><path class="cls-2" d="M256.93,326.91l.1.13-.17.15c0-.06-.07-.12-.06-.16S256.88,327,256.93,326.91Z"/><path class="cls-2" d="M274,336l-.25.16a.66.66,0,0,1-.11-.2s.09-.12.12-.12A1.4,1.4,0,0,1,274,336Z"/><path class="cls-2" d="M288.1,339.62l.12.12c-.05,0-.1.07-.13.06s-.08-.08-.13-.12Z"/><path class="cls-2" d="M297.19,352.8l.13-.08.07.21c-.05,0-.12.05-.15,0S297.2,352.86,297.19,352.8Z"/><path class="cls-2" d="M299.2,340.87l.11.11s0,.07,0,.07l-.14,0Z"/><path class="cls-2" d="M299.09,347.82c-.25.1-.33.15-.35.13a1.43,1.43,0,0,1-.12-.21c.06,0,.11-.07.16-.06A2.23,2.23,0,0,1,299.09,347.82Z"/><path class="cls-2" d="M298.89,351.08l-.17,0,0-.2c.05,0,.12,0,.16,0S298.88,351,298.89,351.08Z"/><path class="cls-2" d="M279.46,321.12c0,.06,0,.12,0,.16s-.09,0-.13.06-.05-.12,0-.15S279.41,321.14,279.46,321.12Z"/><path class="cls-2" d="M277.71,315.54l.12.12-.18.14c0-.05-.07-.11-.06-.15S277.66,315.58,277.71,315.54Z"/><path class="cls-2" d="M291.35,308.86l-.1-.1.12-.07s.06,0,.05.05A.75.75,0,0,1,291.35,308.86Z"/><path class="cls-2" d="M263.79,335.27l-.12.09c0-.05,0-.1,0-.14s.06-.05.06-.05A.94.94,0,0,1,263.79,335.27Z"/><path class="cls-2" d="M283.73,346a.67.67,0,0,1-.06-.12l.07,0,.06.12Z"/><path class="cls-2" d="M299,302l-.12.06a.27.27,0,0,1,0-.07L299,302Z"/><path class="cls-2" d="M261.27,313a.56.56,0,0,1-.13.07s-.06-.05-.05-.06a.33.33,0,0,1,.07-.13Z"/><path class="cls-2" d="M270,301.18a.12.12,0,0,1,0,.08s0,0-.07,0l0-.13Z"/><path class="cls-2" d="M276.39,307.86c0,.05.09.08.12.12s0,.08,0,.08l-.15,0Z"/><path class="cls-2" d="M263.34,335.77a.4.4,0,0,1,0-.15s.06-.05.06,0a.32.32,0,0,1,.1.1Z"/><path class="cls-2" d="M283.14,321.83l-.11.11a.57.57,0,0,1-.08-.13.15.15,0,0,1,.05-.06Z"/><path class="cls-2" d="M288.25,346.61c0,.05,0,.1,0,.15h-.09c0-.05,0-.1,0-.15Z"/><path class="cls-2" d="M284.43,337.91s0,.07,0,.08-.05,0-.08,0a.11.11,0,0,1,0-.08S284.4,337.92,284.43,337.91Z"/><path class="cls-2" d="M286.21,318.19l-.12.06,0-.06.12-.07Z"/><path class="cls-2" d="M263.61,307.22l.08.13-.19.08c0-.05-.05-.11,0-.15S263.56,307.24,263.61,307.22Z"/><path class="cls-2" d="M277.89,349.54l.07,0-.08.13-.06,0C277.84,349.63,277.87,349.59,277.89,349.54Z"/><path class="cls-2" d="M288.54,348.39a.39.39,0,0,1,0-.15l.06,0,.09.1Z"/><path class="cls-2" d="M293,352.86l-.1-.11.13-.07s0,0,0,.05Z"/><path class="cls-2" d="M285,329.76l0-.15h.08a.76.76,0,0,1,0,.15Z"/><path class="cls-2" d="M293,354.3l-.14,0s0-.06,0-.06l.1-.1Z"/><path class="cls-2" d="M275,346.46l-.14,0,0-.08.14,0Z"/><path class="cls-2" d="M291,345.53l-.14.09a.8.8,0,0,1,0-.15s.05-.06.06-.06Z"/><path class="cls-2" d="M277.38,351.23l-.13.08s-.05-.07,0-.07a1,1,0,0,1,.13-.09Z"/><path class="cls-2" d="M285.36,309.29s.05,0,.07,0,0,0,0,.06l-.11,0Z"/><path class="cls-2" d="M264.61,331.66l.06,0-.1,0Z"/><path class="cls-2" d="M297.87,341.21l.07.05s0,.05-.05.06-.05,0-.07,0Z"/><path class="cls-2" d="M291.15,336.57h-.08l.06-.12s.05,0,.06.05S291.17,336.54,291.15,336.57Z"/><path class="cls-2" d="M294.37,318.72l.06.06-.1.09-.05-.05Z"/><path class="cls-2" d="M268.92,349.62s.05.06,0,.07a.94.94,0,0,1-.1.1.59.59,0,0,1,0-.14Z"/><path class="cls-2" d="M295.13,346.24s0,.06,0,.08,0,0-.07.05l0-.13Z"/><path class="cls-2" d="M265.9,314.25l.06-.06.08.1-.05,0Z"/><path class="cls-2" d="M296.51,302s-.06,0-.06,0,0,0,0-.07l.07,0A.19.19,0,0,1,296.51,302Z"/><path class="cls-3" d="M296.74,335.07a1.16,1.16,0,0,1-.27.14s-.1-.13-.09-.14a2.15,2.15,0,0,1,.24-.18Z"/><path class="cls-3" d="M236.45,328.36l0,.08-.14-.08,0-.07Z"/><path class="cls-3" d="M298.77,318.88c-.43-.07-.86-.16-1.3-.19a3.71,3.71,0,0,0-.73.12c0-.11,0-.28,0-.31.25-.16.54-.43.77-.39a8.2,8.2,0,0,1,1.39.55Z"/><path class="cls-3" d="M227.35,325.36l-1.28.19c0-.16,0-.44,0-.44.43-.07.86-.12,1.28-.17Z"/><path class="cls-3" d="M234,298.94c-.52.13-.86.25-1.21.3-.07,0-.18-.26-.27-.4a7.47,7.47,0,0,1,1-.38C233.62,298.44,233.77,298.67,234,298.94Z"/><path class="cls-3" d="M249.69,291c-.32.33-.63.65-1,1a1.56,1.56,0,0,1-.23-.21l1-1Z"/><path class="cls-3" d="M235.5,347.27l-1-1.09.29-.27,1,1.13Z"/><path class="cls-3" d="M239.41,325.25c.28.8.46,1.06.4,1.19a.72.72,0,0,1-.57.26.53.53,0,0,1-.33-.42C238.91,326.08,239.08,325.88,239.41,325.25Z"/><path class="cls-3" d="M244.07,327.64c-.26.12-.43.27-.57.24s-.24-.22-.36-.33a1.84,1.84,0,0,1,.51-.31C243.74,327.23,243.87,327.45,244.07,327.64Z"/><path class="cls-3" d="M261.4,310.62l.43.54c-.16,0-.32.15-.46.12s-.27-.19-.4-.3Z"/><path class="cls-3" d="M223.31,306.89c-.21.14-.37.32-.47.29a.54.54,0,0,1-.35-.37c0-.13.18-.28.28-.42Z"/><path class="cls-3" d="M290.8,343.27c-.28.11-.46.25-.58.21s-.19-.28-.21-.43.24-.21.32-.18S290.58,343.07,290.8,343.27Z"/><path class="cls-3" d="M244.25,345.6l.87.13,0,.21-.89-.05Z"/><path class="cls-3" d="M233.71,342.25l-.34-.52c.13-.06.31-.2.39-.16a.59.59,0,0,1,.25.39C234,342,233.85,342.13,233.71,342.25Z"/><path class="cls-3" d="M294.42,306.85l-.86-.27.07-.26.87.21Z"/><path class="cls-3" d="M253.72,308.17a1.69,1.69,0,0,1-.55.16c-.06,0-.19-.31-.15-.35a1.82,1.82,0,0,1,.45-.26Z"/><path class="cls-3" d="M227.79,296.35l.41.49a1.45,1.45,0,0,1-.47-.08c-.07,0-.09-.18-.13-.28Z"/><path class="cls-3" d="M264.22,306.38l-.81.28a1,1,0,0,1-.09-.39.31.31,0,0,1,.25-.17A3.05,3.05,0,0,1,264.22,306.38Z"/><path class="cls-3" d="M278.36,319.07l-.82.06a1.45,1.45,0,0,1,.32-.29C277.92,318.81,278,318.92,278.36,319.07Z"/><path class="cls-3" d="M257.68,350.26l.65-.22.08.22-.66.19Z"/><path class="cls-3" d="M272.41,289.64c-.17,0-.3.12-.37.08s-.18-.18-.26-.28c.09-.05.18-.15.26-.14S272.19,289.43,272.41,289.64Z"/><path class="cls-3" d="M242.25,297.52l.25.21-.29.26c-.06-.07-.17-.15-.17-.23S242.16,297.62,242.25,297.52Z"/><path class="cls-3" d="M255.32,333.9a1.52,1.52,0,0,1-.15-.46c0-.05.15-.11.23-.17a1.21,1.21,0,0,1,.21.36C255.62,333.68,255.46,333.77,255.32,333.9Z"/><path class="cls-3" d="M221,307.07c-.21.12-.35.25-.43.22s-.17-.19-.2-.31.15-.19.21-.17S220.83,306.94,221,307.07Z"/><path class="cls-3" d="M303.71,305.63l-.64.34-.08-.24.73-.08Z"/><path class="cls-3" d="M272.49,312c.07.14.16.24.14.31s-.14.13-.22.19-.15-.17-.15-.25S272.38,312.12,272.49,312Z"/><path class="cls-3" d="M288.53,330.48l.33.2a1,1,0,0,1-.29.25c-.06,0-.17-.09-.26-.14Z"/><path class="cls-3" d="M245.09,310c0-.15-.13-.28-.09-.35s.19-.16.29-.24c.05.09.16.19.15.27S245.3,309.86,245.09,310Z"/><path class="cls-3" d="M236.24,320.79a2.45,2.45,0,0,1-.16.2,1.5,1.5,0,0,1-.24-.18c0-.06.1-.16.13-.16A1.4,1.4,0,0,1,236.24,320.79Z"/><path class="cls-3" d="M284.75,302.64c.14-.09.22-.18.31-.19s.18.17.16.21a.38.38,0,0,1-.23.2C284.93,302.87,284.85,302.74,284.75,302.64Z"/><path class="cls-3" d="M230.21,295.7c-.2-.05-.32,0-.38-.09s-.08-.19-.12-.28a.68.68,0,0,1,.29.05C230.07,295.42,230.11,295.53,230.21,295.7Z"/><path class="cls-3" d="M230.43,300.26c-.07,0-.15,0-.19,0s0-.12,0-.18h.25Z"/><path class="cls-3" d="M243.39,344.22c0,.07.09.15.07.19s-.11.06-.17.09-.1-.14-.08-.18S243.32,344.26,243.39,344.22Z"/><path class="cls-3" d="M254.29,342.38c.16,0,.27-.11.34-.08s.08.16.08.24-.14.1-.18.08S254.4,342.5,254.29,342.38Z"/><path class="cls-3" d="M232.5,326.84l.47-.19,0,.28-.51-.11Z"/><path class="cls-3" d="M270.68,316.91l-.19.57-.16-.13.37-.42Z"/><path class="cls-3" d="M266.22,328.75l.13.14-.23.18c0-.07-.09-.14-.07-.19S266.16,328.79,266.22,328.75Z"/><path class="cls-3" d="M278.34,291.44c-.06,0-.12.09-.17.09s-.12-.07-.17-.11a1.49,1.49,0,0,1,.2-.15S278.28,291.36,278.34,291.44Z"/><path class="cls-3" d="M273.66,337.1l-.17.13-.1-.25.2-.07Z"/><path class="cls-3" d="M290.05,338.38l-.13.16-.19-.18c.06,0,.12-.1.17-.1S290,338.34,290.05,338.38Z"/><path class="cls-3" d="M266.66,301.27l-.13.15-.18-.16s.1-.11.15-.11S266.6,301.22,266.66,301.27Z"/><path class="cls-3" d="M241.47,298.41l.17-.09.09.24c-.07,0-.15.05-.19,0S241.49,298.47,241.47,298.41Z"/><path class="cls-3" d="M256.38,349.66l-.14.14-.16-.2c.06,0,.12-.09.17-.09S256.34,349.61,256.38,349.66Z"/><path class="cls-3" d="M259.05,321.36l-.13.15-.18-.16c.05,0,.11-.11.16-.1S259,321.32,259.05,321.36Z"/><path class="cls-3" d="M267.66,294.33c.06,0,.17.09.17.13a1,1,0,0,1-.09.27.73.73,0,0,1-.18-.22S267.62,294.39,267.66,294.33Z"/><path class="cls-3" d="M236.33,306.67l-.13.14a.78.78,0,0,1-.1-.15s0-.07.05-.07Z"/><path class="cls-3" d="M277.57,298.45l-.07.07-.11-.13s.05,0,.07-.07Z"/><path class="cls-3" d="M273.75,338.07l-.15-.12.18-.19c0,.05.12.11.11.16S273.8,338,273.75,338.07Z"/><path class="cls-3" d="M223.27,304.62l-.13.16a.81.81,0,0,1-.12-.14s0-.09.06-.08Z"/><path class="cls-3" d="M236.9,311s0,.07,0,.1-.06,0-.09.05l0-.16Z"/><path class="cls-3" d="M224.39,306.34l-.1,0s0-.08,0-.09.06,0,.09,0Z"/><path class="cls-3" d="M271.67,313.67l-.15.07,0-.08.15-.08Z"/><path class="cls-3" d="M225.4,323.91l-.16.13c0-.05-.05-.1-.07-.16s.06-.06.08-.05A.55.55,0,0,1,225.4,323.91Z"/><path class="cls-3" d="M234.37,325.39c0-.05-.05-.09-.07-.14a.17.17,0,0,1,.08-.06l.14.08Z"/><path class="cls-3" d="M226.65,328.79v.1a.38.38,0,0,1-.15-.05s0,0,0-.09Z"/><path class="cls-3" d="M251.41,305.34a.77.77,0,0,1,.05.19s-.06.08-.08.07a.74.74,0,0,1-.13-.12Z"/><path class="cls-3" d="M249.88,305.35l-.1,0,0-.09Z"/><path class="cls-3" d="M279.87,340.78l.08-.08.12.15-.07.07Z"/><path class="cls-3" d="M266.66,338.81l.07.08-.13.1s-.05-.05-.07-.07Z"/><path class="cls-3" d="M276.05,297.35a.94.94,0,0,1-.06-.15l.08,0s.05.1.07.14Z"/><path class="cls-3" d="M232.19,326.4a.12.12,0,0,1,0,.08s0,0-.07,0l0-.14Z"/><path class="cls-3" d="M295,342.1c0-.06-.11-.12-.1-.16s.08-.11.12-.16l.16.2Z"/><path class="cls-3" d="M282.57,352.42l.1.06a1.49,1.49,0,0,1-.14.12s-.06,0-.09-.05Z"/><path class="cls-3" d="M257.39,325.56l0-.09s.07,0,.09,0,0,.06,0,.09Z"/><path class="cls-3" d="M295.7,355.29l.07-.07.12.14-.07.06Z"/><path class="cls-3" d="M268.93,336.94l-.14.09s0-.08,0-.09l.14-.09Z"/><path class="cls-3" d="M287.08,315.82l-.15.06s0-.08,0-.09l.16-.06Z"/><path class="cls-3" d="M261.28,322.1l.07.06-.13,0Z"/><polygon class="cls-3" points="255.24 350.78 255.18 350.83 255.15 350.75 255.24 350.78"/><path class="cls-3" d="M264.52,328.71l-.07-.07.16-.06a.18.18,0,0,1,0,.1S264.55,328.7,264.52,328.71Z"/><polygon class="cls-3" points="251.63 347 251.69 347.07 251.6 347.09 251.63 347"/><path class="cls-3" d="M302.19,322.94l.08,0s0,.06,0,.09l-.12,0Z"/><polygon class="cls-3" points="301.29 327.72 301.23 327.65 301.31 327.64 301.29 327.72"/><path class="cls-3" d="M254.35,292.5l-.07.05-.05-.14s.07,0,.09,0S254.34,292.46,254.35,292.5Z"/><path class="cls-3" d="M297.64,327.21l.09.05-.12.1s-.05-.06,0-.09S297.62,327.23,297.64,327.21Z"/><path class="cls-3" d="M256.32,310.64c-.05,0-.09,0-.1-.06s0-.06,0-.09Z"/><path class="cls-3" d="M279.65,339.89s-.06,0-.08,0,0,0-.05-.07l.14,0Z"/><path class="cls-3" d="M232.45,336.27s.06,0,.09,0,0,.05,0,.08l-.14,0A.28.28,0,0,0,232.45,336.27Z"/><path class="cls-3" d="M287.73,297.94s0,.07-.05.08l-.08,0,.08-.11Z"/><path class="cls-3" d="M235.83,305.77l-.09,0a.12.12,0,0,1,0-.1h.08S235.83,305.73,235.83,305.77Z"/><path class="cls-3" d="M240.24,295.28s-.07,0-.09,0,0-.05-.05-.08l.15,0A.28.28,0,0,0,240.24,295.28Z"/><path class="cls-3" d="M292.32,305l-.05.09s-.07,0-.08-.07,0-.06.05-.08Z"/><path class="cls-3" d="M291.54,314.32l.08-.09a.78.78,0,0,1,.1.15s0,.05-.06.07Z"/><path class="cls-4" d="M254.19,326.25l1-.42,0,.57Z"/><path class="cls-4" d="M252.6,318.66l.28-.25.06.3Z"/><path class="cls-4" d="M239.68,327.24l.34.05Z"/><path class="cls-4" d="M233.11,344.64c.6.5,1,.82,1.39,1.18,0,0-.15.36-.29.48s-.34-.09-.41-.21C233.59,345.74,233.44,345.36,233.11,344.64Z"/><path class="cls-4" d="M238.41,348c-.12-.23-.25-.38-.22-.44a2.75,2.75,0,0,1,.45-.52,1,1,0,0,1,.25.2C238.77,347.43,238.62,347.64,238.41,348Z"/><path class="cls-4" d="M233.08,319.59c-.29.09-.47.22-.58.17a.55.55,0,0,1-.29-.38c0-.08.22-.31.26-.29A3.87,3.87,0,0,1,233.08,319.59Z"/><path class="cls-4" d="M236.2,335.49c-.19.12-.34.28-.43.25a.46.46,0,0,1-.29-.33c0-.07.21-.27.3-.26S236,335.33,236.2,335.49Z"/><path class="cls-4" d="M256.94,305.83a2,2,0,0,1-.52.19c-.1,0-.21-.11-.31-.18.11-.1.21-.28.31-.29S256.7,305.69,256.94,305.83Z"/><path class="cls-4" d="M248.86,296.92c0-.2-.11-.36-.07-.42a.46.46,0,0,1,.35-.17c.07,0,.13.19.2.29Z"/><path class="cls-4" d="M250.87,321.05l.75-.16.06.27-.76.13Z"/><path class="cls-4" d="M257.09,350.32a2.72,2.72,0,0,1-.55.07c-.06,0-.11-.15-.16-.23a2.4,2.4,0,0,1,.44-.12C256.88,350,257,350.17,257.09,350.32Z"/><path class="cls-4" d="M221.57,338l.62-.13a1.09,1.09,0,0,1,0,.19l-.61.17Z"/><path class="cls-4" d="M218.27,339.12c-.08-.18-.17-.29-.16-.39s.19-.21.23-.19a.45.45,0,0,1,.23.28C218.58,338.89,218.42,339,218.27,339.12Z"/><path class="cls-4" d="M244.12,316.47l.49.2a1.29,1.29,0,0,1-.31.08c-.08,0-.15-.07-.22-.11Z"/><path class="cls-4" d="M238.84,303.67a2.06,2.06,0,0,1-.5.18s-.1-.13-.16-.21a1,1,0,0,1,.29-.14C238.55,303.49,238.63,303.57,238.84,303.67Z"/><path class="cls-4" d="M242.73,325.05c0,.16.11.29.08.32a.4.4,0,0,1-.29.12s-.13-.18-.1-.24S242.58,325.15,242.73,325.05Z"/><path class="cls-4" d="M263.69,319c-.16.07-.26.15-.33.13s-.11-.16-.11-.25a.26.26,0,0,1,.17-.11C263.5,318.79,263.56,318.87,263.69,319Z"/><path class="cls-4" d="M234.15,330.58c-.05-.11-.11-.19-.1-.25s.1-.08.16-.13.09.13.09.19S234.22,330.5,234.15,330.58Z"/><path class="cls-4" d="M243,342.8c-.09.07-.18.16-.21.14s-.12-.13-.18-.2.14-.1.2-.1S242.88,342.73,243,342.8Z"/><path class="cls-4" d="M219.22,321a1.58,1.58,0,0,1-.33.11s-.07-.11-.11-.16a1.1,1.1,0,0,1,.26-.14S219.13,320.92,219.22,321Z"/><path class="cls-4" d="M224.28,320.59l-.23.12a.42.42,0,0,1,0-.18s.09-.1.11-.09S224.21,320.52,224.28,320.59Z"/><path class="cls-4" d="M260.06,298.45c0-.33-.07-.41,0-.47s.12-.07.18-.11a.63.63,0,0,1,.05.22A2.67,2.67,0,0,1,260.06,298.45Z"/><path class="cls-4" d="M265.4,342.35c0,.15.1.22.08.28s-.11.09-.17.11-.11-.08-.1-.1A1.27,1.27,0,0,1,265.4,342.35Z"/><path class="cls-4" d="M250.83,302.81a.69.69,0,0,1-.2.07s-.06-.08-.08-.12l.18-.09S250.78,302.75,250.83,302.81Z"/><path class="cls-4" d="M246.93,327.87c-.09,0-.17.11-.22.1s-.09-.12-.13-.18.12-.12.17-.11S246.85,327.78,246.93,327.87Z"/><path class="cls-4" d="M263.47,319.62c-.12,0-.2.08-.26.07s-.08-.11-.12-.17a.44.44,0,0,1,.21-.07C263.35,319.46,263.4,319.54,263.47,319.62Z"/><path class="cls-4" d="M238.74,334.71l-.12.14a.75.75,0,0,1-.14-.17s.06-.07.1-.11Z"/><path class="cls-4" d="M266.24,324l-.14,0a.57.57,0,0,1,0-.13s0,0,.06,0Z"/><path class="cls-4" d="M257.27,314.5c0-.05,0-.11,0-.15s.09-.05.13-.08l.06.19Z"/><path class="cls-4" d="M222.94,346.78l-.13.06s-.05-.11,0-.15.09-.05.13-.07Z"/><path class="cls-4" d="M241.49,307.72l.11.1s-.07.08-.11.08-.07,0-.11-.08Z"/><path class="cls-4" d="M229.65,322.77l0,.13a.57.57,0,0,1-.13,0s0,0,0-.06A1.05,1.05,0,0,1,229.65,322.77Z"/><path class="cls-4" d="M264.84,326.59c-.07,0-.15-.07-.14-.08a1.42,1.42,0,0,1,.08-.18c.05,0,.12,0,.12.06A.51.51,0,0,1,264.84,326.59Z"/><path class="cls-4" d="M262.09,293.12,262,293l.19-.09s.05.11,0,.15S262.14,293.1,262.09,293.12Z"/><path class="cls-4" d="M218.5,328.06s-.05,0-.05,0,0,0,0-.07l.08,0Z"/><path class="cls-4" d="M262.13,331.19l.06.05-.1.07,0,0Z"/><path class="cls-4" d="M252.3,343.48l-.12,0,0-.07a.5.5,0,0,1,.13,0Z"/><path class="cls-4" d="M251.11,344.9s-.05,0-.07,0,0,0,0-.06l.12,0A.22.22,0,0,0,251.11,344.9Z"/><path class="cls-4" d="M238.26,319.75a.79.79,0,0,1,0-.13l.06,0a.39.39,0,0,1,.08.1Z"/><path class="cls-4" d="M227.27,322.89s0,.07-.05.07,0,0-.06,0Z"/><path class="cls-4" d="M262.34,311.22l-.11,0,0,0,.11-.06Z"/><path class="cls-4" d="M246.59,312.56s.09.06.1.1-.05.07-.07.11-.09-.06-.1-.1S246.56,312.6,246.59,312.56Z"/><path class="cls-4" d="M261.32,311.44l0-.05s0,0,0,0l0,.05Z"/><path class="cls-4" d="M244.88,346.63s0,.05,0,.06a.09.09,0,0,1-.07,0l.05-.1Z"/><path class="cls-4" d="M257.76,303l-.09.12-.08-.1s0-.06,0-.05A.61.61,0,0,1,257.76,303Z"/><path class="cls-4" d="M253,312.81h-.08l.05-.11a.15.15,0,0,1,.06.05S253,312.78,253,312.81Z"/><path class="cls-4" d="M250.71,347.12l0,.06-.1-.07,0-.06Z"/><path class="cls-4" d="M268.55,312.87l-.05.06-.08-.1s0,0,0-.05Z"/><path class="cls-4" d="M259.14,286.93l0,.06,0-.1Z"/><path class="cls-4" d="M261.3,315.56s.05,0,.05.05,0,0,0,.06l-.09-.05Z"/><path class="cls-4" d="M240.83,322.81s0,.08,0,.12h-.06a.57.57,0,0,1,0-.13Z"/><polygon class="cls-4" points="257.85 310.04 257.82 309.99 257.88 310 257.85 310.04"/><path class="cls-4" d="M258.69,340.3a.61.61,0,0,1-.05-.12l.06,0a.67.67,0,0,1,.06.12Z"/><path class="cls-4" d="M250.81,318.14l.05,0-.1,0Z"/><path class="cls-4" d="M270.67,308.65l-.06,0a.47.47,0,0,1-.05-.1l.05,0A.33.33,0,0,1,270.67,308.65Z"/><path class="cls-4" d="M216.86,319.19s-.05,0-.05,0,0,0,0-.07l.1.05Z"/><polygon class="cls-4" points="259.6 340.92 259.64 340.89 259.64 340.93 259.6 340.92"/><path class="cls-4" d="M257.42,315.14s0,.05,0,.05a.07.07,0,0,1-.06,0l.05-.09Z"/><path class="cls-4" d="M235.62,307.28l0,0-.05-.1s.05,0,.07,0A.11.11,0,0,1,235.62,307.28Z"/><path class="cls-4" d="M264.72,341.56l-.09.07s0-.05,0-.05a.34.34,0,0,1,.08-.09Z"/><path class="cls-4" d="M266.18,324.81h-.07a.17.17,0,0,1,0-.07h.11Z"/><path class="cls-4" d="M217.35,331.67l0-.06.11,0s0,.06,0,.08Z"/><path class="cls-4" d="M243.64,304.82c.19.51,1.49-.4,1.18.67,0,.13-.2.21-.31.31Z"/><path class="cls-4" d="M222.59,290.22l.59.54c-.1.07-.24.2-.29.17a4.66,4.66,0,0,1-.59-.43Z"/><path class="cls-4" d="M234.58,307.31l-.39.55-.16-.11.36-.57Z"/><path class="cls-4" d="M224.57,295.49a1.72,1.72,0,0,1,.07.41c0,.06-.13.16-.14.15a.84.84,0,0,1-.23-.23A3.26,3.26,0,0,1,224.57,295.49Z"/><path class="cls-4" d="M266.76,308.06a1,1,0,0,1-.33.1c-.06,0-.11-.13-.16-.2a1.08,1.08,0,0,1,.29-.09C266.61,307.87,266.66,308,266.76,308.06Z"/><path class="cls-4" d="M233.1,322.15c-.07-.11-.16-.2-.14-.22a.54.54,0,0,1,.23-.19s.14.12.13.14A1.18,1.18,0,0,1,233.1,322.15Z"/><path class="cls-4" d="M235.53,299.27l.35-.29.2.27-.35.29Z"/><path class="cls-4" d="M222.69,291c0-.08-.05-.13,0-.17a.44.44,0,0,1,0-.15s.07,0,.07.06A1.23,1.23,0,0,1,222.69,291Z"/><path class="cls-4" d="M221.76,295.81l-.13.07-.06-.18.15,0Z"/><path class="cls-4" d="M230.77,318.44s.08.08.08.12-.06.06-.1.09-.07-.08-.07-.12S230.74,318.47,230.77,318.44Z"/><path class="cls-4" d="M229.13,309.85a.51.51,0,0,1-.17.07s-.07-.11-.05-.13a.57.57,0,0,1,.16-.11Z"/><path class="cls-4" d="M232.11,294.38s0,0,.06,0,0,0,0,.06l-.09-.06Z"/><path class="cls-4" d="M253.27,306.57l0,.07-.06,0Z"/><polygon class="cls-4" points="237.32 310.46 237.28 310.41 237.34 310.39 237.32 310.46"/><path class="cls-4" d="M234.41,312.59l0,.09h-.07Z"/><path class="cls-4" d="M234.7,328.24l0-.05.09,0s0,.05,0,.07Z"/><path class="cls-4" d="M233.07,306.63l0,.07H233Z"/><path class="cls-4" d="M229.82,290l-.08,0,0-.07Z"/><path class="cls-5" d="M225.89,326.79c0,.48-.29.41-.56.38C225.34,326.76,225.66,326.88,225.89,326.79Z"/><path class="cls-5" d="M262.76,349.32c.35-.36.37-.36.54-.08Z"/><path class="cls-5" d="M245.51,334.62l.45.11,0,.15-.45-.12Z"/><path class="cls-5" d="M249.31,331.27c0,.1,0,.2-.06.3s-.11,0-.17,0l0-.33Z"/><path class="cls-5" d="M225.78,336.2l-.37.14-.06-.14.34-.18Z"/><path class="cls-5" d="M252,347h-.49C251.69,346.77,251.69,346.77,252,347Z"/><path class="cls-5" d="M216.13,326.47l.38,0v.11l-.4,0Z"/><path class="cls-5" d="M239.38,338.69H239v-.1l.4,0Z"/><path class="cls-5" d="M243.78,340.08v.33h-.14l0-.33Z"/><path class="cls-5" d="M219.11,345.8l.13.31-.13.05-.14-.29Z"/><path class="cls-5" d="M236.25,341.45l-.31,0v-.11h.32Z"/><path class="cls-5" d="M236.18,329.68l-.3.12,0-.08.3-.16Z"/><path class="cls-5" d="M232.74,339.2h-.28a.88.88,0,0,1,0-.14h.27Z"/><path class="cls-5" d="M227.7,340.61l0,.28h-.12l0-.27Z"/><path class="cls-5" d="M241.61,321.54a.83.83,0,0,1-.06.21l-.13,0,.06-.22Z"/><path class="cls-5" d="M248.19,349.48c-.07,0-.12.09-.15.08s-.08-.07-.12-.11.09-.07.13-.06S248.12,349.43,248.19,349.48Z"/><path class="cls-5" d="M252.82,335.69l.21-.05,0,.07-.22.09Z"/><path class="cls-5" d="M221.77,345.25c-.09,0-.15.07-.17.05s-.07-.08-.11-.13.09-.07.12-.06A.6.6,0,0,1,221.77,345.25Z"/><path class="cls-5" d="M248.5,349.57a1,1,0,0,1-.2.09s-.07-.08-.06-.11a.14.14,0,0,1,.11-.07S248.42,349.52,248.5,349.57Z"/><path class="cls-5" d="M257.48,343.6a.76.76,0,0,1,.16.06l0,.09-.16-.06Z"/><path class="cls-5" d="M238.38,333.36a.39.39,0,0,1-.14.06s-.06-.07-.05-.08a.18.18,0,0,1,.1-.07S238.33,333.31,238.38,333.36Z"/><path class="cls-5" d="M221.22,333.72l.08-.15s.06,0,0,0a1.42,1.42,0,0,1,0,.16Z"/><path class="cls-5" d="M233.28,340.88l-.22-.1,0,0,.22.07Z"/><path class="cls-5" d="M218.9,346c0-.06-.07-.1-.06-.14s.06,0,.1-.07a.52.52,0,0,1,.06.13S219,345.92,218.9,346Z"/><path class="cls-5" d="M215.66,342.59c0,.07,0,.11,0,.13a.12.12,0,0,1-.07.07s-.07-.06-.06-.07A.53.53,0,0,1,215.66,342.59Z"/><path class="cls-5" d="M242.68,341.47l-.08-.08a.16.16,0,0,1,.06-.09.21.21,0,0,1,.1,0Z"/><path class="cls-5" d="M251,347.78a.49.49,0,0,1-.21,0s-.07-.06-.06-.07a.18.18,0,0,1,.09-.1S250.83,347.69,251,347.78Z"/><path class="cls-5" d="M247.38,347.77l-.1,0s0-.06,0-.07a.32.32,0,0,1,.09,0Z"/><path class="cls-5" d="M264,351.33v-.17h.07l0,.18Z"/><path class="cls-5" d="M248.26,335.27l.08.09-.09.07s-.06-.05-.06-.08S248.23,335.3,248.26,335.27Z"/><path class="cls-5" d="M234.32,338.16l0-.05.08,0a.21.21,0,0,1,0,.06S234.34,338.15,234.32,338.16Z"/><path class="cls-5" d="M242.46,329.87c-.06,0-.11,0-.12,0s0-.06,0-.09h.06A.48.48,0,0,1,242.46,329.87Z"/><path class="cls-5" d="M218.39,334.14l-.06,0,0-.09a.09.09,0,0,1,.07,0S218.38,334.12,218.39,334.14Z"/><path class="cls-5" d="M259.51,345.28l.14.05v.06l-.15,0Z"/><path class="cls-5" d="M222.9,342.12l.09-.06,0,.05a.46.46,0,0,1-.07.07Z"/><path class="cls-5" d="M247.51,337.91s0-.08,0-.12,0,0,.05,0l.07.06Z"/><path class="cls-5" d="M229.43,345.24a1,1,0,0,1,0,.1l-.06,0,0-.09Z"/><path class="cls-5" d="M234.36,343.33l.07,0-.06.09-.06,0A.47.47,0,0,1,234.36,343.33Z"/><path class="cls-5" d="M216,345.2a.52.52,0,0,1-.1.11l-.06,0,.11-.12Z"/><path class="cls-5" d="M226.64,338.15l-.06,0,0-.06s0,0,.06,0Z"/><path class="cls-5" d="M244.78,343.39c0-.06,0-.1,0-.12s.06,0,.09,0,0,.05,0,.07Z"/><path class="cls-5" d="M235.8,339.08s0,0,0-.05l.05-.06,0,0S235.82,339.06,235.8,339.08Z"/><path class="cls-5" d="M237.3,336.29l.06.06a.24.24,0,0,1-.06.08l-.05,0Z"/><path class="cls-5" d="M242.26,345.7l-.06,0,0-.08.07,0Z"/><path class="cls-5" d="M217,345.73l-.05,0,0-.06,0,0Z"/><path class="cls-5" d="M230.64,347.21s0,.05-.06.05l-.05-.05.07-.06Z"/><path class="cls-5" d="M229.94,328.86c-.06,0-.1.05-.12,0s0-.06,0-.09.05,0,.06,0S229.9,328.82,229.94,328.86Z"/><path class="cls-5" d="M225.15,344.32s-.05-.06,0-.07l.08-.06s0,.05,0,.06A.16.16,0,0,1,225.15,344.32Z"/><path class="cls-5" d="M240.82,338.07s0,0,0,0l-.06,0,.07-.06Z"/></g></mask></defs><g id="レイヤー_2" data-name="レイヤー 2"><g id="文字"><path class="cls-6" d="M29.14,373.72c-.24,9.8,5.72,18.38,14.51,22.43.11,11.74,11.87,21.4,26.61,21.7H71.4c4.58,5.14,12.44,8.62,21.45,8.81a34.34,34.34,0,0,0,12.26-2,23.08,23.08,0,0,0,15.54,6,23.87,23.87,0,0,0,14-4,30.94,30.94,0,0,0,6.89.92c9.69.19,18.26-4.06,23-10.55a30.33,30.33,0,0,0,5.36.57c14.11.29,25.91-9,27.35-21,10.32-2.92,17.84-11,18.08-20.71.22-9.19-6.17-17.22-15.51-20.86,0-.11,0-.22,0-.33.29-11.53-12.51-21.13-28.58-21.46a40.1,40.1,0,0,0-7,.47c-3.57-4.16-9.65-7-16.61-7.1a23.38,23.38,0,0,0-15.63,5.16,43.36,43.36,0,0,0-21.71-5.92C96.78,325.64,85,330.83,80,338.43A31.72,31.72,0,0,0,71.05,337c-11.88-.25-22,5.9-25,14.42C36.37,354.81,29.4,363.45,29.14,373.72Z"/><path class="cls-7" d="M191.41,397.23a43.33,43.33,0,0,0,4.87-1.18,30.39,30.39,0,0,0,6.53-2.87c.57-.34,1.14-.7,1.7-1.11l.43-.3.41-.32c.27-.22.56-.43.83-.67a24.86,24.86,0,0,0,3.08-3.15,22.48,22.48,0,0,0,2.5-3.87c.16-.36.36-.7.5-1.07l.45-1.1c.13-.37.25-.75.38-1.13s.19-.78.3-1.16a19,19,0,0,0,.48-4.58,18.13,18.13,0,0,0-.68-4.33,20.85,20.85,0,0,0-3.76-7.17,26.81,26.81,0,0,0-5-4.74,36.7,36.7,0,0,0-4.17-2.65c-1.39-.73-1.09-1.4.58-.9a23.49,23.49,0,0,1,4.83,2.21,25.49,25.49,0,0,1,5.78,4.77,21.69,21.69,0,0,1,4.53,7.84,19.72,19.72,0,0,1,.86,4.92,20.09,20.09,0,0,1-.51,5.2c-.12.45-.21.9-.35,1.34s-.3.87-.44,1.3-.35.84-.53,1.25-.4.81-.59,1.21a24.5,24.5,0,0,1-2.94,4.32,26.79,26.79,0,0,1-3.61,3.41c-.66.47-1.28.95-1.94,1.34s-1.3.78-1.95,1.12a27.88,27.88,0,0,1-7.27,2.53,24.37,24.37,0,0,1-5.16.5C190.21,398.14,190,397.48,191.41,397.23Z"/><path class="cls-7" d="M165.14,416.69a46.74,46.74,0,0,0,8.11-.27,27.35,27.35,0,0,0,2.78-.51c1-.19,1.93-.51,2.94-.8a30.42,30.42,0,0,0,6-2.77,26.4,26.4,0,0,0,5-3.9,14.3,14.3,0,0,0,1-1.06,11.12,11.12,0,0,0,.91-1.06l.83-1.06.71-1.06a28.09,28.09,0,0,0,3.19-6.73c.35-.91,1.14-.83,1.13.22,0,.41,0,.89-.08,1.43s-.2,1.14-.33,1.8-.38,1.35-.66,2.1c-.15.36-.31.74-.48,1.13-.08.19-.16.4-.26.59l-.31.59c-.22.4-.44.81-.68,1.22l-.82,1.22a29.08,29.08,0,0,1-2,2.44,24.82,24.82,0,0,1-5.46,4.42,28.71,28.71,0,0,1-6.79,3l-1.69.41-.41.1-.41.07-.82.14a24.84,24.84,0,0,1-3.09.33,23,23,0,0,1-8.44-1C164.13,417.34,164.18,416.66,165.14,416.69Z"/><path class="cls-7" d="M135.39,426.3l.62.06.73.06c.51.06,1.1.09,1.73.13a35.28,35.28,0,0,0,4.45,0,31.62,31.62,0,0,0,5.41-.88,30.89,30.89,0,0,0,5.8-2.12,30.31,30.31,0,0,0,5.09-3.14,27.79,27.79,0,0,0,3.79-3.52,30.08,30.08,0,0,0,2.54-3.29c.3-.5.62-.95.85-1.38l.36-.58.3-.52c.48-.79,1.24-.59,1.08.38a13.77,13.77,0,0,1-.9,2.92,20,20,0,0,1-2.23,3.87,23.77,23.77,0,0,1-3.88,4.12,27.61,27.61,0,0,1-5.55,3.59A29,29,0,0,1,149,428.2a27.61,27.61,0,0,1-6.05.58,24.59,24.59,0,0,1-4.76-.56,15.36,15.36,0,0,1-1.75-.48c-.25-.09-.49-.16-.7-.25l-.58-.25C134.38,426.89,134.49,426.22,135.39,426.3Z"/><path class="cls-7" d="M101.62,418.31a21.19,21.19,0,0,0,1.78,2.87,18.49,18.49,0,0,0,3.48,3.52,18.17,18.17,0,0,0,2.51,1.65,20.82,20.82,0,0,0,3,1.38,25.64,25.64,0,0,0,3.45,1,28.38,28.38,0,0,0,3.76.51,27.7,27.7,0,0,0,3.76,0,28.13,28.13,0,0,0,3.52-.51,23,23,0,0,0,5.94-2.15,19.94,19.94,0,0,0,4.1-2.89,23.28,23.28,0,0,0,2.36-2.57c.68-.86,1.41-.58,1,.54a13,13,0,0,1-1.94,3.22,17.74,17.74,0,0,1-4.2,3.67,22.92,22.92,0,0,1-6.57,2.75,27.34,27.34,0,0,1-12.49.1,24.06,24.06,0,0,1-3.9-1.26c-.62-.24-1.2-.53-1.76-.81s-1.1-.6-1.6-.93a19,19,0,0,1-2.7-2.07,15.93,15.93,0,0,1-3.35-4.31,10.88,10.88,0,0,1-1.16-3.36C100.5,417.7,101.18,417.44,101.62,418.31Z"/><path class="cls-7" d="M71.88,417.59c.27.2.59.43,1,.68s.78.55,1.23.87a37.47,37.47,0,0,0,3.34,2,33.58,33.58,0,0,0,4.46,1.9,37.24,37.24,0,0,0,5.42,1.41,46.48,46.48,0,0,0,5.54.62c1.77.08,3.43.05,4.93,0,3-.16,5.38-.56,6.81-.71.89-.1,1.15.58.3,1a24.33,24.33,0,0,1-6.88,2,35.28,35.28,0,0,1-5.27.39,35.66,35.66,0,0,1-6-.55,31.24,31.24,0,0,1-6-1.69A27,27,0,0,1,76,423a21,21,0,0,1-3.19-2.61,13.67,13.67,0,0,1-1-1.16l-.39-.5c-.1-.17-.2-.32-.29-.46C70.73,417.65,71.24,417.15,71.88,417.59Z"/><path class="cls-7" d="M45.45,389.82a26,26,0,0,0-.58,3.91,19.47,19.47,0,0,0,.46,5.65c.06.26.14.52.2.78s.18.53.26.8.09.27.13.41l.16.4.33.82a20.69,20.69,0,0,0,1.82,3.24,21.89,21.89,0,0,0,6,5.75,27.49,27.49,0,0,0,3.82,2.11,34.72,34.72,0,0,0,4,1.49,37.48,37.48,0,0,0,3.91.94,33.57,33.57,0,0,0,3.69.47A39.87,39.87,0,0,0,80.36,416c1.37-.26,1.66.41.28,1a23.92,23.92,0,0,1-4.48,1.33,30.76,30.76,0,0,1-6.74.57,33.66,33.66,0,0,1-4-.31,36.67,36.67,0,0,1-4.29-.87,34.86,34.86,0,0,1-4.39-1.55,27.2,27.2,0,0,1-4.26-2.32,24.88,24.88,0,0,1-3.86-3.11,22.27,22.27,0,0,1-2.9-3.59,20.06,20.06,0,0,1-1.89-3.76c-.21-.64-.44-1.25-.58-1.86-.07-.31-.15-.61-.22-.91s-.12-.6-.16-.9a17.31,17.31,0,0,1,.17-6.18,14.29,14.29,0,0,1,1.4-3.93C45,388.6,45.71,388.7,45.45,389.82Z"/><path class="cls-7" d="M54.65,350.35a34.57,34.57,0,0,0-5.11,1,27.89,27.89,0,0,0-6.83,2.83c-.3.17-.59.36-.89.55l-.88.6-.45.31-.43.33-.88.69A26.16,26.16,0,0,0,36,359.89a24.68,24.68,0,0,0-2.62,4,23.08,23.08,0,0,0-1.76,4.66A23.58,23.58,0,0,0,31.1,378a26.55,26.55,0,0,0,1,4.24c.13.33.26.66.38,1,.07.16.12.32.19.48s.15.31.22.47.27.61.42.91l.48.87a23.94,23.94,0,0,0,4.28,5.55l.54.52a6,6,0,0,0,.54.48l1,.87,1,.72.43.33.42.29c1.33.91,1,1.55-.7.83l-.5-.22-.51-.27c-.36-.19-.75-.39-1.14-.63L38,393.65c-.43-.29-.84-.62-1.29-1A23.36,23.36,0,0,1,31.56,387c-.18-.31-.37-.61-.57-.93l-.52-1-.26-.5c-.07-.17-.15-.34-.23-.52-.15-.35-.32-.7-.46-1.06a25.75,25.75,0,0,1-1.32-4.62,24.48,24.48,0,0,1,2.44-15.66,25.79,25.79,0,0,1,3.07-4.47,26.38,26.38,0,0,1,3.75-3.53c.68-.49,1.32-1,2-1.39.35-.2.68-.42,1-.61s.68-.38,1-.55a26.75,26.75,0,0,1,7.63-2.5,22.66,22.66,0,0,1,5.4-.26C56,349.53,56.14,350.2,54.65,350.35Z"/><path class="cls-7" d="M198.37,359.23a22.28,22.28,0,0,0,.39-4,16.4,16.4,0,0,0-1-5.6l-.15-.38-.17-.38c-.11-.26-.22-.52-.34-.78l-.4-.77-.21-.4-.24-.38a19,19,0,0,0-2.26-3,20.68,20.68,0,0,0-3.08-2.77,25.77,25.77,0,0,0-3.79-2.34,35.23,35.23,0,0,0-4.13-1.75,41.34,41.34,0,0,0-4.17-1.17c-1.38-.31-2.73-.53-4-.7s-2.58-.28-3.79-.31a49.92,49.92,0,0,0-10.91.74c-1.39.23-1.66-.45-.25-1a27.44,27.44,0,0,1,4.52-1.3,37.8,37.8,0,0,1,6.76-.7c1.29,0,2.65,0,4.06.13s2.87.32,4.36.6a38.22,38.22,0,0,1,4.55,1.19,34.55,34.55,0,0,1,4.54,1.88,24.82,24.82,0,0,1,7.7,5.95,19.24,19.24,0,0,1,3.86,7.15,15.31,15.31,0,0,1,.43,6.28,13.36,13.36,0,0,1-1.21,4C198.88,360.45,198.14,360.35,198.37,359.23Z"/><path class="cls-7" d="M163.45,333.56l-.42-.3-.49-.34c-.34-.25-.74-.5-1.17-.79a25.37,25.37,0,0,0-7.49-3.25,29.42,29.42,0,0,0-5.18-.79,30.25,30.25,0,0,0-5.18.18,27.85,27.85,0,0,0-4.45.93,29.54,29.54,0,0,0-3.45,1.26c-1,.44-1.75.82-2.34,1.12-.74.36-1.28-.17-.7-.83a11.85,11.85,0,0,1,2.07-1.79,19.28,19.28,0,0,1,3.55-1.91,24,24,0,0,1,4.87-1.4,27,27,0,0,1,5.82-.32,25.22,25.22,0,0,1,5.91,1.05,21.6,21.6,0,0,1,4.68,2.07,16.64,16.64,0,0,1,3.14,2.42,10.14,10.14,0,0,1,1,1.11c.14.17.26.33.37.48s.19.31.26.44C164.58,333.5,164.06,334,163.45,333.56Z"/><path class="cls-7" d="M134.62,334.23a46.6,46.6,0,0,0-4.35-2.48,40.21,40.21,0,0,0-6.87-2.65,52.08,52.08,0,0,0-19.75-1.41,48.87,48.87,0,0,0-5.28.85,42.9,42.9,0,0,0-4.85,1.34,33,33,0,0,0-4.3,1.79c-.67.31-1.28.69-1.9,1l-.87.56-.43.27-.4.3a20,20,0,0,0-4.88,4.84c-.26.4-.54.79-.77,1.17s-.41.75-.61,1.1-.32.69-.47,1l-.22.45c-.06.16-.11.3-.17.44-.53,1.38-1.32,1.27-1.09-.35a15.2,15.2,0,0,1,1.71-4.78,19.72,19.72,0,0,1,5-5.7c.27-.24.58-.45.88-.67s.61-.45.93-.66c.65-.4,1.31-.84,2-1.21s1.45-.74,2.21-1.11c.38-.17.78-.32,1.17-.49s.8-.32,1.21-.47a40.55,40.55,0,0,1,5.18-1.52,45.26,45.26,0,0,1,5.59-.94,48.67,48.67,0,0,1,21,2.05,34.11,34.11,0,0,1,6.94,3.33,23.1,23.1,0,0,1,4,3.13C136.18,334.41,135.81,335,134.62,334.23Z"/><path class="cls-7" d="M45.76,350.58a11,11,0,0,1,1-2.76,17.11,17.11,0,0,1,2.44-3.64A21,21,0,0,1,51,342.27l.55-.47.58-.45c.39-.29.78-.62,1.22-.89s.87-.58,1.34-.84l1.44-.78,1.54-.69c.52-.22,1.07-.41,1.62-.61a29,29,0,0,1,6.42-1.39c.52,0,1-.12,1.52-.13l1.48,0c.48,0,1,0,1.41,0l.68,0,.66.06A23.92,23.92,0,0,1,79,337.79c.91.4.63,1.08-.37,1a60.59,60.59,0,0,0-7.32-.43,35.66,35.66,0,0,0-10.94,1.77A25.77,25.77,0,0,0,55,342.64c-.41.22-.76.5-1.13.74l-.55.37-.51.38c-.67.52-1.28,1.05-1.83,1.57a28.26,28.26,0,0,0-4.23,5.17C46.37,351.47,45.62,351.4,45.76,350.58Z"/><path class="cls-6" d="M135.61,333s3.49-13.54,1.08-19.42c12.43,9.51,10.14,19.29,10.14,19.29Z"/><path class="cls-7" d="M147.23,332.61a10.42,10.42,0,0,0,.31-4.45,17.39,17.39,0,0,0-2.35-6.68l-.51-.82a8.88,8.88,0,0,0-.53-.78l-1.1-1.43c-.38-.45-.78-.85-1.15-1.24l-.55-.57c-.19-.18-.38-.34-.57-.5a18.77,18.77,0,0,0-3.55-2.56c-.5-.26-.79.15-.43.6s.69.79,1.19,1.3l.4.39.4.45.88,1c.16.17.33.34.48.53s.31.38.47.58c.31.39.66.79,1,1.22l1,1.35c.33.47.61,1,.93,1.48a21.38,21.38,0,0,1,2.46,6,26.32,26.32,0,0,1,.6,4,.45.45,0,0,0,.27.42C147,333,147.14,332.86,147.23,332.61Z"/><path class="cls-7" d="M136.47,314a30.54,30.54,0,0,1,.21,3.54c0,1.61-.12,3.57-.33,5.71-.44,4.19-1,7.8-1,9.34,0,.48.49.6.72.15a31.46,31.46,0,0,0,2.22-9.3,26.35,26.35,0,0,0,0-6,9,9,0,0,0-1.15-3.61C136.88,313.45,136.43,313.59,136.47,314Z"/></g><g id="レイヤー_1-2" data-name="レイヤー 1"><rect class="cls-8" x="405.37" y="317.41" width="16.63" height="16.63" transform="translate(208.98 -159.38) rotate(28.91)"/><polygon class="cls-8" points="7.52 41.66 7.82 32.18 15.59 32.55 15.29 42.02 7.52 41.66"/><polygon class="cls-8" points="17.52 213.66 17.82 204.18 25.59 204.55 25.29 214.02 17.52 213.66"/><polygon class="cls-8" points="103.92 76.17 97.43 69.27 103.19 64.03 109.68 70.94 103.92 76.17"/><polygon class="cls-8" points="509.48 149.21 509.78 139.74 517.55 140.1 517.26 149.57 509.48 149.21"/><polygon class="cls-8" points="279.9 406.63 280.19 397.16 287.97 397.52 287.67 407 279.9 406.63"/><polygon class="cls-8" points="28.26 420.57 28.55 411.1 36.33 411.46 36.03 420.94 28.26 420.57"/><polygon class="cls-8" points="216.1 354.74 216.4 345.27 224.17 345.63 223.87 355.11 216.1 354.74"/><rect class="cls-9" x="264.82" y="451.15" width="10.79" height="10.79" transform="translate(778.67 607.95) rotate(137.2)"/><rect class="cls-10" x="449.82" y="0.3" width="12.51" height="12.51" transform="translate(440.15 -449.29) rotate(87.18)"/><rect class="cls-10" x="0.3" y="243.85" width="12.51" height="12.51" transform="translate(256.03 231.23) rotate(87.18)"/><rect class="cls-10" x="290.38" y="7.95" width="12.51" height="12.51" transform="translate(506.32 -196.09) rotate(132.18)"/><rect class="cls-10" x="244.09" y="361.1" width="12.51" height="12.51" transform="translate(604.92 99.22) rotate(87.18)"/><rect class="cls-10" x="529.97" y="269.85" width="12.51" height="12.51" transform="translate(785.57 -273.07) rotate(87.18)"/><rect class="cls-9" x="148.01" y="56.07" width="6.25" height="6.25" transform="translate(129.58 -101.68) rotate(60.98)"/><rect class="cls-9" x="202.21" y="316.23" width="6.25" height="6.25" transform="translate(384.96 -15.14) rotate(60.98)"/><rect class="cls-9" x="25.21" y="312.23" width="6.25" height="6.25" transform="translate(290.34 137.57) rotate(60.98)"/><rect class="cls-9" x="512.18" y="104.76" width="6.25" height="6.25" transform="translate(359.63 -395.05) rotate(60.98)"/><g class="cls-11"><path class="cls-12" d="M247.9,305l25.89-2.26a2.57,2.57,0,0,0,.48,0l2.88-.21a3.52,3.52,0,0,1,3.6,2.18c.53,1.19,1.07,2.38,1.58,3.58,1.79,4.17,3.57,8.36,5.36,12.54.88,2.07,1.78,4.13,2.64,6.21a1.72,1.72,0,0,1-1.44,2.52q-4.81.45-9.65.87l-11.37,1-5.74.5-3.81.35-11,.94-5.75.5-1,.1c-1.47.12-1.9-.12-2.5-1.41l0-.27c.23-1.07.44-2.15.69-3.21q1.41-6,2.84-12c.69-2.94,1.39-5.87,2.07-8.81a3.8,3.8,0,0,1,3.3-2.89C247.26,305.13,247.58,305,247.9,305Zm21.21,14.45H269l-.18-2c0-.27-.1-.42-.41-.39l-3.05.28c-1.18.12-2.35.27-3.53.37-1.87.16-3.75.27-5.62.44s-3.47.35-5.2.5c-2.43.22-4.85.41-7.28.6a.45.45,0,0,0-.47.43c-.11.67-.25,1.33-.39,2L241,330.81c-.13.61-.14.62.48.57L246,331l5.94-.48c2.05-.18,4.09-.41,6.14-.59,1.75-.16,3.51-.26,5.26-.41l6.11-.53c.37,0,.48-.15.45-.53C269.63,325.45,269.37,322.44,269.11,319.43ZM284,324.34c.05-.26.07-.41.1-.56a5.46,5.46,0,0,0-1.77-5.38,9.55,9.55,0,0,0-4.71-2.12.54.54,0,0,0-.46.22c-.72,1.13-1.41,2.27-2.09,3.42a1.59,1.59,0,0,0-.12.44l-.27-.16-.67-3.66c-.78.07-1.51.16-2.25.19-.41,0-.5.18-.44.56.21,1.34.39,2.68.59,4,.12.82.26,1.63.39,2.47l.64,0c1.35.06,2.7.1,4.05.18a.94.94,0,0,1,.57.32c.94,1.19,1.85,2.41,2.79,3.6a.62.62,0,0,0,.44.2c2.24-.19,4.47-.41,6.7-.6.39,0,.44-.2.3-.54-.31-.71-.61-1.44-.91-2.16s-.33-.8-1.18-.64a.5.5,0,0,1-.13,0Zm-29.22-10.78.4.13c.93.23,1.87.43,2.79.7a2,2,0,0,0,1.69-.09c2.52-1.34,5.07-2.61,7.61-3.91a1.15,1.15,0,0,0,.29-.2,9.79,9.79,0,0,1,2.49-2,10.12,10.12,0,0,1,9.49-.74l.43.14-1.48-3.43c-.65.47-1.26.93-1.89,1.36a.6.6,0,0,1-.55,0,1.25,1.25,0,0,0-2,.16.46.46,0,0,1-.65.06c-.44-.25-.89-.5-1.36-.71a.63.63,0,0,0-.5,0,12.3,12.3,0,0,0-1.23.92.62.62,0,0,1-.82,0c-.38-.23-.8-.41-1.18-.64a.39.39,0,0,0-.56.05c-.39.44-1.06.48-1.4,1,0,.05-.2,0-.29,0a4.3,4.3,0,0,1-.48-.24c-1.83-.88-1.17-.89-2.91,0a21.66,21.66,0,0,0-7.25,6.31C255.18,312.9,255,313.22,254.78,313.56Zm-11,3.59,4.13-.36c1.6-.15,3.2-.3,4.8-.43.31,0,.4-.15.45-.43.12-.69.26-1.38.41-2.07.11-.47.24-.94.37-1.45l-1.85.16c-2.35.21-4.7.42-7.05.61-.38,0-.52.16-.57.51s-.21.91-.3,1.36C244.06,315.72,244,316.4,243.81,317.15Zm8.28-5.92c-.47-1-.87-1.87-1.3-2.72a.53.53,0,0,0-.44-.18c-1.2.11-2.39.25-3.58.4a.51.51,0,0,0-.34.28c-.27.79-.51,1.6-.75,2.4-.08.25,0,.38.29.36Zm23.49,2.87c.49-.08,1-.13,1.47-.25a6.1,6.1,0,0,0,3.13-1.57,1.77,1.77,0,0,0-.42-2.9A5,5,0,0,0,279,309a1.09,1.09,0,0,0-.32,0,1.29,1.29,0,0,0,.1.35,1.41,1.41,0,0,1-.05,2,5.55,5.55,0,0,1-1.5,1.19,8.75,8.75,0,0,1-4.73.86,1.18,1.18,0,0,0-.44.16,1.92,1.92,0,0,0,.38.25A7.85,7.85,0,0,0,275.58,314.1Zm-20.14-5a9.79,9.79,0,0,1,4.65-3.3l0-.12-8.15.76Z"/><path class="cls-12" d="M284.51,340.28l-1,.09a4.15,4.15,0,0,0-.61,0c-.76.08-1.51.18-2.27.27l-16,1.4-2.82.18a4.19,4.19,0,0,0-.69.13l-5.84.51a1.19,1.19,0,0,0-.26,0c-.84.06-1.68.12-2.51.2-.49.05-1,.15-1.46.22l-4.31.38a4.84,4.84,0,0,0-.53,0l-5.16.43a1.64,1.64,0,0,1-1.91-1.31,6.6,6.6,0,0,1-.14-.89c-.13-1-.25-2-.38-2.93l0-.54-.25-2.79-.05-.63c.15,0,.3.06.44.11a5.64,5.64,0,0,0,1.23.47,8.39,8.39,0,0,0,1.57-.1c2.57-.21,5.15-.4,7.72-.62l7.41-.66,10.2-.87c2.15-.18,4.31-.35,6.46-.55,2.61-.23,5.21-.49,7.82-.72s5.17-.45,7.76-.69a1.94,1.94,0,0,0,1.44-.75,2.33,2.33,0,0,1,.31-.26,1.14,1.14,0,0,1,.06.25c.21,2.38.45,4.76.61,7.15a1.75,1.75,0,0,1-1.8,2.07c-1.5.18-3,.29-4.49.44A3,3,0,0,0,284.51,340.28Z"/><path class="cls-12" d="M255.77,321.94a7.35,7.35,0,0,1,1.56.44,1.34,1.34,0,0,1,.17,2.34,3.22,3.22,0,0,1-3.12.27,1.36,1.36,0,0,1-.26-2.32,2.64,2.64,0,0,1,1.61-.61Z"/></g><path class="cls-13" d="M324.24,48.8a17.48,17.48,0,0,1-8.09-2c-2.48-1.37-3.84-3.19-3.84-5.12,0-1.3,0-3.52.06-6.09v-.06c0-3.08.09-6.91.1-10.47a.4.4,0,0,1,.31-.39l.1,0a.42.42,0,0,1,.36.21c1.51,2.73,5.22,5.63,11.12,5.63,4.26,0,9-1.48,14.06-4.41,7-4.06,9.71-5.92,10.75-8.3a.39.39,0,0,1,.37-.25h.08a.41.41,0,0,1,.33.39c.11,4.72-.17,11.22-.23,12.47v.1a8.39,8.39,0,0,1-3.83,7.44,96.34,96.34,0,0,1-16.35,9.76A12,12,0,0,1,324.24,48.8Z"/><path class="cls-14" d="M328.62,28a.64.64,0,0,1-.64-.64,3,3,0,1,0-6,0,.65.65,0,0,1-1.3,0,4.33,4.33,0,0,1,1.06-2.82A3.05,3.05,0,0,0,319,22.82a3.55,3.55,0,0,0-.46,0,3,3,0,0,0-2.44,2.09.63.63,0,0,1-.61.45.69.69,0,0,1-.2,0,.59.59,0,0,1-.37-.32.64.64,0,0,1-.05-.49,4.33,4.33,0,0,1,3.47-3,4.62,4.62,0,0,1,.65-.05,4.49,4.49,0,0,1,1,.11,3,3,0,0,0-2.27-1.7,3.55,3.55,0,0,0-.46,0,3,3,0,0,0-3,2.56.66.66,0,0,1-.64.55h-.05a.62.62,0,0,1-.47-.26.62.62,0,0,1-.12-.48,4.34,4.34,0,0,1,4.26-3.65h.31a4.22,4.22,0,0,1,1.59-2.43,4.3,4.3,0,0,1,2.59-.87,4.17,4.17,0,0,1,.61,0l.17,0a4.32,4.32,0,0,1,4-2.74,4.19,4.19,0,0,1,1.35.22A4.22,4.22,0,0,1,331.5,10h.29a4.15,4.15,0,0,1,1.39.24,4.3,4.3,0,0,1,4.09-3,4.79,4.79,0,0,1,1,.11,4.39,4.39,0,0,1,1.91,1,3.67,3.67,0,0,1,2.19-.9h.27A3.75,3.75,0,0,1,346.37,11v.27A4,4,0,0,1,349,15a.65.65,0,1,1-1.29,0,2.72,2.72,0,0,0-2-2.61h-.14l-.17-.06-.4,0a2.72,2.72,0,0,0-2.24,1.18l0,0a3.63,3.63,0,0,1,.38,1.25,5.14,5.14,0,0,1,.78-.07A4.28,4.28,0,0,1,348.09,18a.64.64,0,0,1-.08.49.62.62,0,0,1-.4.29l-.15,0a.64.64,0,0,1-.62-.5A3,3,0,0,0,343.9,16a3.27,3.27,0,0,0-.7.08,3.05,3.05,0,0,0-1.34.71.66.66,0,0,1-.44.17.65.65,0,0,1-.44-1.12,4.23,4.23,0,0,1,.88-.62,2.49,2.49,0,0,0-.65-1.65,2.43,2.43,0,0,0-1.7-.77h-.08a2.45,2.45,0,0,0-2.15,1.29.65.65,0,0,1-.57.35.65.65,0,0,1-.57-.95,3.67,3.67,0,0,1,3.28-2h.14a3.66,3.66,0,0,1,2.37,1A4,4,0,0,1,345,11h.08a2.47,2.47,0,0,0-.84-1.62,2.43,2.43,0,0,0-1.61-.6h-.17a2.42,2.42,0,0,0-2.25,2.06.65.65,0,0,1-.64.55h-.05a.67.67,0,0,1-.47-.26.68.68,0,0,1-.12-.48,3.81,3.81,0,0,1,.43-1.24A3,3,0,0,0,338,8.67a2.74,2.74,0,0,0-.7-.08,3,3,0,0,0-2.93,2.3,3.69,3.69,0,0,1,.64.6.64.64,0,0,1-.06.91.67.67,0,0,1-.42.16.62.62,0,0,1-.49-.23,3,3,0,0,0-2.22-1h-.2A2.91,2.91,0,0,0,329,13.47a4.29,4.29,0,0,1,1.69,2.59.33.33,0,0,1,0,.17,3.51,3.51,0,0,1,1,.38,3.82,3.82,0,0,1,3.36-2,3.75,3.75,0,0,1,2.33.81,3.8,3.8,0,0,1,1.33,2,4.14,4.14,0,0,1,5.24,4,.65.65,0,0,1-1.29,0,2.84,2.84,0,0,0-5.5-1,3.93,3.93,0,0,1,1.21,1.19,4.16,4.16,0,0,1,.65,1.83.69.69,0,0,1-.15.48.66.66,0,0,1-.44.23h0a.67.67,0,0,1-.7-.58,2.65,2.65,0,0,0-.44-1.25A2.73,2.73,0,0,0,335,21.06a2.69,2.69,0,0,0-1.5.45,2.59,2.59,0,0,0-.89,1,4.33,4.33,0,0,1,1.5,2.81.61.61,0,0,1-.14.47.61.61,0,0,1-.43.24h0a.64.64,0,0,1-.66-.57,3,3,0,0,0-3-2.69l-.34,0a3,3,0,0,0-2,1.11,4.33,4.33,0,0,1,1.81,3.51A.65.65,0,0,1,328.62,28Zm-6.95-11.41a3,3,0,0,0-2.93,2.3,4.33,4.33,0,0,1,2.6,2.9.61.61,0,0,1,0,.42,4.19,4.19,0,0,1,1.4,1.47,4.28,4.28,0,0,1,2.25-.64,4.42,4.42,0,0,1,1.34.22A4.27,4.27,0,0,1,329,21.54a2.59,2.59,0,0,0-2.39-1.6h-.29a2.59,2.59,0,0,0-2.07,1.47.64.64,0,0,1-.58.37.67.67,0,0,1-.28-.06.64.64,0,0,1-.33-.37.6.6,0,0,1,0-.49,3.85,3.85,0,0,1,3.08-2.2h.18a3.76,3.76,0,0,1,3-2.47,3,3,0,0,0-2.91-2.25,3.06,3.06,0,0,0-2.79,1.87A4.31,4.31,0,0,1,325,16.93a.64.64,0,0,1-.5,1.05.67.67,0,0,1-.51-.24,3,3,0,0,0-2.36-1.13Zm8.21.83h-.22a2.44,2.44,0,0,0-2,1.35,3.87,3.87,0,0,1,2.63,2.54.4.4,0,0,1,0,.15,4.21,4.21,0,0,1,1.17.31,3.9,3.9,0,0,1,1.28-1.37l.21-.12v0a.64.64,0,0,1-.66-.58,2.44,2.44,0,0,0-.87-1.68A2.49,2.49,0,0,0,329.88,17.44Zm3.59,2.63a3.91,3.91,0,0,1,1.51-.3,4,4,0,0,1,1,.12A4,4,0,0,1,337.49,18,2.52,2.52,0,0,0,335,15.9l-.31,0a2.52,2.52,0,0,0-2,1.52,3.73,3.73,0,0,1,.92,2.15.67.67,0,0,1-.16.48Z"/><path class="cls-14" d="M212,440.68a.34.34,0,0,1-.22-.07.36.36,0,0,1-.15-.27,11.73,11.73,0,0,1,.5-4.56,14.71,14.71,0,0,1,3.1-4.61,14.56,14.56,0,0,1-4.89,2.66,9.79,9.79,0,0,1-2.44.32,8.33,8.33,0,0,1-3.79-.88.39.39,0,0,1-.19-.24.36.36,0,0,1,.05-.3,12.74,12.74,0,0,1,10.73-6.1,6.84,6.84,0,0,1,4.14,1.05c.83.73,1.22,3.52.51,6.14a9.36,9.36,0,0,1-7.26,6.85Z"/><path class="cls-14" d="M218.9,428a1.35,1.35,0,0,1-.57-.11c-.72-.35-1.83-4.32,0-9.6a.37.37,0,0,1,.3-.24h.05a.38.38,0,0,1,.31.16,6,6,0,0,1,1.25,4.86,22.92,22.92,0,0,1,6.45-.82c.53,0,1,0,1.49.05a.39.39,0,0,1,.34.27.38.38,0,0,1-.14.41C222.25,427.46,219.71,428,218.9,428Zm10.79-6.08a.44.44,0,0,1-.22-.07,6.64,6.64,0,0,0-3.94-1,15.74,15.74,0,0,0-3.09.34h-.08a.36.36,0,0,1-.36-.28,5.9,5.9,0,0,0-2.85-3.64.37.37,0,0,1-.17-.48,23.5,23.5,0,0,1,4.73-6.81c.3-.31.63-.63,1-1a.38.38,0,0,1,.25-.09H225a.4.4,0,0,1,.27.19,7.69,7.69,0,0,1,.59,7,14.4,14.4,0,0,1,2.28-.16,35.4,35.4,0,0,1,7.46.88.39.39,0,0,1,.28.31.36.36,0,0,1-.17.37,46.39,46.39,0,0,0-3.78,2.73c-.68.56-1.36,1.09-2,1.6A.4.4,0,0,1,229.69,421.87Zm7.72-5.5a.44.44,0,0,1-.26-.1c-2-1.82-5.48-2.09-7.39-2.09h-.83a.35.35,0,0,1-.25-.1.34.34,0,0,1-.12-.26,7,7,0,0,0-2.64-5.28.36.36,0,0,1-.15-.3.37.37,0,0,1,.14-.3,31.71,31.71,0,0,1,9.57-4.92l.11,0a.38.38,0,0,1,.36.26,7.47,7.47,0,0,1-.72,6.63h.27a31.57,31.57,0,0,1,9.68,2.11.39.39,0,0,1,.24.35.4.4,0,0,1-.25.35,52.76,52.76,0,0,0-7.57,3.61A.45.45,0,0,1,237.41,416.37ZM247,412a.38.38,0,0,1-.31-.16c-1.87-2.67-6.64-3.27-8-3.38a.4.4,0,0,1-.27-.14.39.39,0,0,1-.07-.29,6.7,6.7,0,0,0-1.26-4.94.4.4,0,0,1-.06-.35.42.42,0,0,1,.27-.25,29.11,29.11,0,0,1,7.19-1,22.48,22.48,0,0,1,2.76.17.37.37,0,0,1,.33.39,5.82,5.82,0,0,1-1.92,4.11,24.37,24.37,0,0,1,7.95,3.39.38.38,0,0,1-.15.68,46,46,0,0,0-6.29,1.71Zm7.89-2a.38.38,0,0,1-.36-.27c-.74-2.51-4.62-3.79-5.8-4.12a.39.39,0,0,1-.23-.19.37.37,0,0,1,0-.31,5.42,5.42,0,0,0,.33-2.64.36.36,0,0,1,.12-.33.35.35,0,0,1,.25-.1h.13c5.65,1.37,8.1,4,8,5.87,0,1.06-.92,1.81-2.37,2.06Z"/><path class="cls-13" d="M231.16,432.75h-.28a14,14,0,0,1-7.08-2.22,6.8,6.8,0,0,1-1.64-1.92.36.36,0,0,1,0-.3.4.4,0,0,1,.2-.24l.67-.33a.47.47,0,0,1,.17,0,.38.38,0,0,1,.32.18,4.92,4.92,0,0,0,1.18,1.41,12.49,12.49,0,0,0,6.54,1.95,6.22,6.22,0,0,0,2.66-.51c3.25-1.52,16.11-9,18.41-11.1,2.59-2.35,2.52-5.62,2-7.94a.39.39,0,0,1,.05-.3.42.42,0,0,1,.26-.16l.37-.06.36-.06h.07a.38.38,0,0,1,.37.29,13,13,0,0,1,.27,1.81,8.79,8.79,0,0,1-2.74,7.53c-2.56,2.34-15.78,9.95-18.78,11.35a7.76,7.76,0,0,1-3.33.66Z"/><path class="cls-14" d="M26.13,81.31A11.45,11.45,0,0,1,21.66,80a28.09,28.09,0,0,0-5.58-2.22,15.63,15.63,0,0,0-2.92-.49,12.42,12.42,0,0,0-2.3.06,1,1,0,0,1-.29,0,1.55,1.55,0,0,1-1.2-.76A3.21,3.21,0,0,1,9.2,73.8a15.74,15.74,0,0,1,1.73-3.2.59.59,0,0,1,.49-.26c1.07,0,2.11,0,3.1.09a24.8,24.8,0,0,1,4.81.71A30.19,30.19,0,0,1,26.59,74a.6.6,0,0,1,.29.39.63.63,0,0,1-.11.48c-.57.77-.89,1.28-1,1.42a.74.74,0,0,0,.29,1,.73.73,0,0,0,.36.14h0a.57.57,0,0,0,.55-.25A29.81,29.81,0,0,1,41.6,65.73a26.46,26.46,0,0,1,10-1.51c.53,0,.85.09.91.09h.08a.52.52,0,0,0,.42-.13.58.58,0,0,0,.18-.41.84.84,0,0,0-.68-.83s-.43-.07-1.12-.11a23.1,23.1,0,0,0-3.28,0h-.08a.58.58,0,0,1-.42-.22c-.94-1.11-3.23-3.26-8-5.17a.61.61,0,0,1-.36-.69.59.59,0,0,1,.62-.46h0A28.12,28.12,0,0,1,55.84,63c1.08.88,1.53,1.84,1.21,2.63a1.64,1.64,0,0,1-1.72,1l-.18,0c-.46-.06-.93-.11-1.39-.14-8.06-.51-16.64,4.36-25.51,14.49C27.82,81.37,26.62,81.35,26.13,81.31Zm1.7-8.12a.71.71,0,0,1-.28-.09,31.12,31.12,0,0,0-8.09-3.3,26.52,26.52,0,0,0-5.12-.75l-.9,0h0a.6.6,0,0,1-.4-1,33.26,33.26,0,0,1,3.2-3,.58.58,0,0,1,.39-.14c.83,0,1.63,0,2.38.09a24.89,24.89,0,0,1,4.81.7,28.33,28.33,0,0,1,7.63,3.25.59.59,0,0,1,.28.46.59.59,0,0,1-.21.5A32.41,32.41,0,0,0,28.32,73,.62.62,0,0,1,27.83,73.19Zm5.29-4.79a.55.55,0,0,1-.3-.11,29.08,29.08,0,0,0-8.88-4,24.34,24.34,0,0,0-4.17-.68.6.6,0,0,1-.28-1.09c.86-.58,1.75-1.15,2.66-1.68a.65.65,0,0,1,.31-.08c1,0,2,.05,3,.11A27.33,27.33,0,0,1,38,64.61a.63.63,0,0,1,.28.54.59.59,0,0,1-.34.51,29.5,29.5,0,0,0-4.41,2.63A.63.63,0,0,1,33.12,68.4Zm7.21-3.81a.62.62,0,0,1-.34-.13,25.77,25.77,0,0,0-9.57-4.23,25.39,25.39,0,0,0-3.51-.58.6.6,0,0,1-.53-.5.6.6,0,0,1,.35-.64,36.3,36.3,0,0,1,3.53-1.37.63.63,0,0,1,.19,0c.62,0,1.23,0,1.83.07a20.37,20.37,0,0,1,5.27.93,24.1,24.1,0,0,1,7.87,4.14.61.61,0,0,1,.19.61.62.62,0,0,1-.46.44A31.46,31.46,0,0,0,41,64.41l-.4.15A.66.66,0,0,1,40.33,64.59Z"/><path class="cls-13" d="M55,67.8c-.44-.06-.87-.11-1.3-.13h-.25c.1,1.91,0,5.4-1.92,7.41C48.74,78,32.91,87,28,88.76c-3.27,1.16-9.14-.52-12.2-2.8s-2.87-6.85-2.87-6.9a.78.78,0,0,0-.15-.5,11,11,0,0,0-1.42,0,.8.8,0,0,0-.13.43c0,.23-.09,5.61,3.55,8.31a19.8,19.8,0,0,0,9.77,3.49,10.39,10.39,0,0,0,4-.45c5.17-1.83,21.23-11,24.19-14.12,2.26-2.39,2.49-6.2,2.4-8.43Z"/><path class="cls-15" d="M399.25,18.64l-12.58-5.92-9.52,5.18a2.46,2.46,0,0,0-1.17,2l.09,2.88a2.59,2.59,0,0,0,1.25,2l10.53,5.59a2.63,2.63,0,0,0,2.38-.1l9.74-6.2-.08-4.5A1.23,1.23,0,0,0,399.25,18.64ZM415.9,7.53l-9.44-4.32A3.14,3.14,0,0,0,404,3.3l-7.65,4.16,12,5.61a1.18,1.18,0,0,1,.62,1v4.34l6.79-4.32A3,3,0,0,0,417,12l.11-2.48A2.22,2.22,0,0,0,415.9,7.53Z"/><path class="cls-13" d="M388.52,11.45c-.32.19-.31.47,0,.64l12.06,5.66a1.21,1.21,0,0,1,.63,1l.26,13.18c0,.38.28.52.6.32L407,29.1A1.39,1.39,0,0,0,407.6,28V14.93a1.17,1.17,0,0,0-.63-1L395,8.33a1.48,1.48,0,0,0-1.22.06Z"/><path class="cls-13" d="M416.5,15.23l-.94.6a13,13,0,0,1-2.07,6.9c-1,1.48-15.73,10.36-19.4,12.48a5.72,5.72,0,0,1-3.79.85,30.73,30.73,0,0,1-8.88-3.89,7.17,7.17,0,0,1-2.77-5.08l-1.81-1c0,1.51.48,5.34,3.62,7.46,2.78,1.89,7.88,4,9.65,4.18A7.59,7.59,0,0,0,395,36.7c.19-.11,18.41-10.78,19.95-13a15.27,15.27,0,0,0,2.39-9.18A4,4,0,0,1,416.5,15.23Z"/><path class="cls-16" d="M528.26,59.07c-.65-3.68-3.68-27-4.25-31.82s-10.92-6.49-21.71-4.58-19.93,7-18.83,11.73,6.24,27.67,6.89,31.35,1.47,6.8,1.47,6.8c-.73,2,.5,6.74,3.54,7.79,2.6.9,5.79,3.59,17.37,1.55s13.66-5.67,15.8-7.4c2.49-2,2-6.87.66-8.53C529.2,66,528.91,62.75,528.26,59.07Z"/><path class="cls-16" d="M525.34,35.34c0,.64.52-1.18,4-2s10.22-.54,10.29,10.13-8.9,16.22-9.15,17.89-1.67,2.83-2.08.55l-1.11-6.32c-.09-.53.92-2,2-.9s7.65-7.31,7.07-11.19c-.93-6.35-6.15-9.23-9.2-4-.07,1.64-1,3.61-1.94,2.33a13.51,13.51,0,0,1-1.85-6.37A1,1,0,1,1,525.34,35.34Z"/><path class="cls-6" d="M521,38c-1.28-7.25-.44-11.39-1.68-12.72-1.09-1.06-6.77-3-16.77-1.28-9.54,1.68-14.66,5.57-15.32,6.94-1,1.18,1.25,3.86,2.8,12.64a48.17,48.17,0,0,0,15.72-.42A54.87,54.87,0,0,0,521,38Z"/><path class="cls-17" d="M524.73,65.78l-.12-1.32s-.28-3.07-.89-6.5c-.41-2.32-1.68-11.81-2.74-20a54.87,54.87,0,0,1-15.25,5.16,48.17,48.17,0,0,1-15.72.42c1.79,8,3.82,17.29,4.23,19.6.61,3.43,1.38,6.39,1.39,6.41l.34,1.28L495.56,72a3.77,3.77,0,0,0,.91,2.43c.55.19,1.06.41,1.55.63,2.16.94,5.12,2.22,13.64.72s10.86-3.72,12.57-5.34c.39-.37.79-.76,1.24-1.13a3.76,3.76,0,0,0,0-2.59Z"/><path class="cls-18" d="M498.69,72.39c.05-.66.78-3.18,11.13-5s12.67,0,12,1.14c-1,1.62-3.95,3.28-12.29,4.18-3.24.15-2.2-2.17.59-2.81s1.71-1.58-.57-1.18-7.2,1.27-8.63,2.38-1,1.84-1.61,1.94S498.65,72.87,498.69,72.39Z"/><path class="cls-19" d="M503.77,49.46a.89.89,0,1,1-1-.73A.9.9,0,0,1,503.77,49.46Z"/><path class="cls-19" d="M515.59,61.12a.89.89,0,1,1-1.75.31.89.89,0,0,1,1.75-.31Z"/><path class="cls-19" d="M504.45,63a.72.72,0,0,1-.59.83.72.72,0,1,1,.59-.83Z"/><path class="cls-19" d="M513.43,55.44a.73.73,0,1,1-.84-.59A.73.73,0,0,1,513.43,55.44Z"/><path class="cls-19" d="M507.86,57.24a.72.72,0,1,1-.83-.59A.71.71,0,0,1,507.86,57.24Z"/><path class="cls-19" d="M509.85,64.12a.61.61,0,0,1-.48.69.59.59,0,0,1-.68-.48.58.58,0,0,1,.47-.68A.6.6,0,0,1,509.85,64.12Z"/><path class="cls-19" d="M500.9,56.48a.59.59,0,0,1-1.16.2.59.59,0,0,1,1.16-.2Z"/><path class="cls-19" d="M512.51,48.46a.59.59,0,0,1-.48.68.59.59,0,0,1-.2-1.16A.59.59,0,0,1,512.51,48.46Z"/><path class="cls-6" d="M496.13,60.54s2.69,10.11,2.83,10.9,2.59.35,2.45-.43S499,60.6,498.68,59.61s-.21-2.23-2-1.92S495.6,59.59,496.13,60.54Z"/><path class="cls-6" d="M494.71,13.6c-11.18,2.69-15.61,7.46-15.9,12.21-3.76,4.28-1,9.23.88,11.43-.11,3.63,4.28,7.2,7.45,8.09s4.14,2.16,3.85,6.92c-.15,2.52,1.36,5.55,5,4.91s4.12-4.35,3.26-7.09-2.39-5-.13-5,4.68-1.19,4.55-4.06c3.77.06,19.22-1.94,21.51-10.31s-2.84-11.8-5.82-11.64c-4.09-6.15-6.1-6.88-11.76-7A66.06,66.06,0,0,0,494.71,13.6Z"/><path class="cls-12" d="M514.43,300.37l-.28.31.26,2L513,305l-.22,1.48-.29,3.05-2,2.22-.87,1.39-3.12.58-1.53-.83-1.73-.15-1.05,1.87-1.89.32-2,.39-1.77.89-1,1.79-1.32,1.34-2-.11-1.64.65-1.74.47-1.5,1-.25,2-.51,1.09-1.44,1.85,1.09,1.72,1.55,4.36-4.32-.26-2.22-.16-1.86-.46-2.18.41-2.49-.46-2.82-.94-2.5-.67-2.16-.79-1.6-1.31-2.95-.93-1.59-4,.32-2.14-.46-1.3-3,0-1.36-3.11-2.24-1.82.43-3.31-.06-2.38,1.83-3.8,3.57-.82,1.28-.34,2.22-2.4,2.59.43,1.28-1.21,3.15-1,2.94-.09,1.13.14,1.44-1.64,3.23-.37,1-.11.89-1.2,2.46-1.83,2.49-.62.82-.34.7-1.41-2.8-.28c-28.68-2.51-41.91,6.86-42.21,17-.46,15.61,8.16,39.41,37.05,41.94S521.26,331,523.48,316C524.26,310.65,521.45,305,514.43,300.37Z"/><path class="cls-6" d="M481.28,332.78c16.8,1.47,31.49-3.39,36.6-11.34a2.6,2.6,0,0,0,.19-.74c.13-1.42-1.07-2.7-1.39-4.07s.23-3.08-.43-4.29-2.31-1.4-3.22-2.41-.95-2.69-2-3.51-2.76-.48-3.92-1.16-1.63-2.26-2.86-2.81-2.93.07-4.21-.37-2.09-1.91-3.43-2.27-2.94.47-4.29.2-2.43-1.62-3.82-1.81-2.86.79-4.24.67-2.7-1.35-4.06-1.4-2.73,1.09-4.07,1.12-2.87-1-4.2-.94-2.48,1.43-3.77,1.64-3-.67-4.21-.36-2.13,1.83-3.31,2.27-3-.12-4.06.46S455,304,454,304.77s-2.79.83-3.58,1.81-.65,2.93-1.17,4.15-2,2.34-2.08,3.77a2.76,2.76,0,0,0,.06.76C450.86,324,464.48,331.31,481.28,332.78Z"/><path class="cls-12" d="M479.82,353.13A36.25,36.25,0,0,1,460.61,346c0,.21-.07.41-.09.62-.49,5.61,7.8,10.91,18.51,11.85s19.8-2.85,20.29-8.45a2.18,2.18,0,0,0,0-.25A36.43,36.43,0,0,1,479.82,353.13Z"/><path class="cls-20" d="M494.81,286.85a13,13,0,0,1-.94-8.14c.4-1.55,2.06-.8,3,1.17a12.5,12.5,0,0,1,.86,4.18,20.06,20.06,0,0,1,2-4.12c1.88-2.5,3.79-1.22,3.29,1.38a9,9,0,0,1-4.09,6.29C498,286.63,496.74,286.24,494.81,286.85Z"/><path class="cls-20" d="M508.1,292.62a13.92,13.92,0,0,1,.28-9c.7-1.63,2.45-.55,3.22,1.75a13.48,13.48,0,0,1,.28,4.68,22.22,22.22,0,0,1,2.91-4.17c2.52-2.43,4.45-.73,3.47,2a10,10,0,0,1-5.62,6.2C511.77,292.9,510.38,292.26,508.1,292.62Z"/><polygon class="cls-21" points="463.51 314.4 466.22 313.43 468.2 312.85 470.67 311.67 473.25 311.74 475.07 311.27 477.84 310.74 480.24 311.12 481.43 310.96 483.22 309.94 485.32 309.24 487.95 307.75 490.57 308.24 491.31 307.86 493.19 306.02 494.97 305.54 495.61 304.15 497.44 302.05 498.08 301.45 497.64 299.17 499 297.26 498.71 294.99 499.49 292.89 499.61 290.57 497.9 289 496.02 288.06 494.04 288.93 493.36 291 491.79 292.6 490.12 293.9 489.1 295.98 487.05 296.82 484.87 297.37 483.18 298.63 481.78 300.51 479.53 300.78 477.35 301.03 475.61 303.01 473.14 302.71 470.8 302.78 468.61 303.5 466.72 305.3 464.2 304.87 462.44 306.78 460.26 307.36 457.94 307.89 456.97 309.9 457.02 311.86 456.76 313.87 458.34 315.15 459.24 317.21 460.14 317.2 463.51 314.4"/><polygon class="cls-21" points="483.56 330.12 481.54 326.95 484.05 323.72 484.24 323.31 484.6 320.35 487.64 318.38 489.7 317.82 491.83 316.98 493.15 317.06 493.29 316.91 494.53 314.65 497.51 313.15 500.02 312.67 500.6 312.57 501.91 310.24 506.17 310.61 507.36 311.25 508.25 311.08 508.6 310.53 510.17 308.79 510.38 306.54 510.7 304.36 511.93 302.42 511.63 300.11 513.28 298.19 512.19 296.16 511.13 294.86 509.65 294.4 507.92 294.48 505.39 294.84 505.4 297.32 503.79 299.01 502.54 300.81 501.17 302.54 499.55 304.04 498.1 305.72 497.05 307.96 494.7 308.6 493.06 310.21 491.03 311.26 488.47 310.77 486.53 311.88 484.43 312.58 482.39 313.74 480.2 314.03 477.9 313.66 475.73 314.08 473.59 314.63 471.3 314.57 469.27 315.54 467.14 316.17 465 316.94 462.98 318.61 463.88 321.14 463.57 323.25 464.39 325.31 466.62 326.01 468.3 327.39 470.38 328.14 472.37 329.49 474.71 329.49 476.98 329.9 479.3 329.46 481.57 330.03 483.58 330.18 483.56 330.12"/><path class="cls-22" d="M512.93,323.1l-1.55-.83.15-2.26.52-1.94-1.3-1.43-.36-2-1.66-.75-1.85.34-1.57-.84-1.77-.16-1.07,1.92-2,.32-2,.39-1.8.91-1,1.83L494.32,320l-2-.12-1.67.66-1.78.49-1.53,1-.25,2.08-.52,1.11-1.47,1.9,1.11,1.74.64,1.8v.77C498.23,331.43,508,328.19,512.93,323.1Z"/><path class="cls-13" d="M359.41,342.43c-7.85,1.39-15.27-.67-17.63-4.89a.32.32,0,0,1,0-.35.31.31,0,0,1,.19-.11.22.22,0,0,1,.14,0,36.58,36.58,0,0,0,16.46.74,35.91,35.91,0,0,0,15.23-6.43.38.38,0,0,1,.13-.06.34.34,0,0,1,.22,0,.31.31,0,0,1,.15.32C373.64,336.51,367.37,341,359.41,342.43Zm-1.12-6.38a35,35,0,0,1-19.89-2.12,31.62,31.62,0,0,1-14.59-12.57.32.32,0,0,1,.06-.4.3.3,0,0,1,.16-.08.35.35,0,0,1,.24.06c8.16,6.15,20.3,8.54,32.48,6.39s22.68-8.47,28.23-16.94a.32.32,0,0,1,.39-.12.31.31,0,0,1,.18.36,32.21,32.21,0,0,1-8.62,15.8A34.28,34.28,0,0,1,358.29,336.05Zm-1.7-9.62c-13.59,2.4-27.23-1.06-34.74-8.81a.7.7,0,0,1-.06-.09,33.08,33.08,0,0,1-2.32-7.64c-.74-4.17,1.42-8.7,6.08-12.77s11.18-7.25,18.69-9.24h0a.32.32,0,0,1,.36.22,23.3,23.3,0,0,1,.62,2.65,19.79,19.79,0,0,1,.34,4.34,20.29,20.29,0,0,0,.18,3.32.33.33,0,0,1-.23.35c-11.48,3.32-19.64,9.69-20.79,16.22,3.92,6.78,17,9.89,31.14,7.4s25.36-9.89,26.72-17.6c-3.18-5.52-12.61-8.74-24-8.2a.31.31,0,0,1-.32-.27,19.15,19.15,0,0,1-.18-3.24,20.61,20.61,0,0,0-.36-4.52,23.56,23.56,0,0,0-.52-2.33.35.35,0,0,1,.05-.27.3.3,0,0,1,.2-.13h0c7.2-.35,14,.65,19.07,2.8,5.27,2.23,8.56,5.64,9.26,9.59a32,32,0,0,1,.39,8.06.23.23,0,0,1,0,.11C381.75,316.17,370.14,324.05,356.59,326.43Zm-5-6.33c-1.27.22-2.57.35-3.79.46a39.75,39.75,0,0,1-4.75,0,27.12,27.12,0,0,1-4.76-.81,19.16,19.16,0,0,1-2.34-.84,10.39,10.39,0,0,1-2.23-1.29,6.51,6.51,0,0,1-1.85-2,4.48,4.48,0,0,1-.56-2.81,5,5,0,0,1,1.08-2.35.31.31,0,0,1,.19-.11.32.32,0,0,1,.33.47,4.52,4.52,0,0,0-.64,2,3.39,3.39,0,0,0,.62,2.08,5.54,5.54,0,0,0,1.62,1.52,13.53,13.53,0,0,0,4.18,1.66,28.48,28.48,0,0,0,4.5.66,46,46,0,0,0,9.1-.22c1.06-.13,2.13-.29,3.17-.47s2.35-.45,3.49-.73h0a.32.32,0,0,1,.36.21.32.32,0,0,1-.18.39,32.44,32.44,0,0,1-6.69,2ZM341,314.67h-.19a4.89,4.89,0,0,1-1.66-.87,3.4,3.4,0,0,1-1.14-1.88,3.79,3.79,0,0,1,.26-2.25,5.73,5.73,0,0,1,1.06-1.73,11.79,11.79,0,0,1,1.33-1.3,15.25,15.25,0,0,1,3-1.87,19.07,19.07,0,0,1,3.05-1.16h0a.32.32,0,0,1,.35.2l.08.23c.11.27.21.53.3.81a.29.29,0,0,1,0,.24.35.35,0,0,1-.18.16,27.15,27.15,0,0,0-2.82,1.17A16.36,16.36,0,0,0,341.7,308a7,7,0,0,0-2.12,2.28,2.58,2.58,0,0,0-.31,1.48,2.39,2.39,0,0,0,.63,1.36,4.77,4.77,0,0,0,1.21.95.31.31,0,0,1,.13.4A.28.28,0,0,1,341,314.67Zm14.39-36.95a.37.37,0,0,1-.25-.07.3.3,0,0,1-.11-.23c-.05-.68,0-1.23,0-1.8v-.27a.3.3,0,0,1,.26-.31l30.32-5.35a.32.32,0,0,1,.36.26l.52,2.95a.3.3,0,0,1-.05.24.32.32,0,0,1-.2.12Zm-18,2.6a.31.31,0,0,1-.35-.26l-.26-1.44a.32.32,0,0,1,.26-.37l5.11-.9a.31.31,0,0,1,.37.32c0,.47,0,1,0,1.62a.31.31,0,0,1-.27.32Zm18-6.23a.32.32,0,0,1-.25-.06.35.35,0,0,1-.12-.23c0-.62-.11-1.26-.21-2a.3.3,0,0,1,.25-.35l29.8-6.14a.32.32,0,0,1,.23.05.34.34,0,0,1,.14.21l.49,2.82a.32.32,0,0,1-.25.37Zm-18.48,3.26a.32.32,0,0,1-.37-.26l-.25-1.44a.31.31,0,0,1,.25-.36l5.47-1.13a.4.4,0,0,1,.24,0,.34.34,0,0,1,.13.22c.08.59.13,1.12.15,1.65a.3.3,0,0,1-.26.32Z"/><path class="cls-12" d="M359.41,342.43c-7.85,1.39-15.27-.67-17.63-4.89a.32.32,0,0,1,0-.35.31.31,0,0,1,.19-.11.22.22,0,0,1,.14,0,36.58,36.58,0,0,0,16.46.74,35.91,35.91,0,0,0,15.23-6.43.38.38,0,0,1,.13-.06.34.34,0,0,1,.22,0,.31.31,0,0,1,.15.32C373.64,336.51,367.37,341,359.41,342.43Zm-1.12-6.38a35,35,0,0,1-19.89-2.12,31.62,31.62,0,0,1-14.59-12.57.32.32,0,0,1,.06-.4.3.3,0,0,1,.16-.08.35.35,0,0,1,.24.06c8.16,6.15,20.3,8.54,32.48,6.39s22.68-8.47,28.23-16.94a.32.32,0,0,1,.39-.12.31.31,0,0,1,.18.36,32.21,32.21,0,0,1-8.62,15.8A34.28,34.28,0,0,1,358.29,336.05Zm-1.7-9.62c-13.59,2.4-27.23-1.06-34.74-8.81a.7.7,0,0,1-.06-.09,33.08,33.08,0,0,1-2.32-7.64c-.74-4.17,1.42-8.7,6.08-12.77s11.18-7.25,18.69-9.24h0a.32.32,0,0,1,.36.22,23.3,23.3,0,0,1,.62,2.65,19.79,19.79,0,0,1,.34,4.34,20.29,20.29,0,0,0,.18,3.32.33.33,0,0,1-.23.35c-11.48,3.32-19.64,9.69-20.79,16.22,3.92,6.78,17,9.89,31.14,7.4s25.36-9.89,26.72-17.6c-3.18-5.52-12.61-8.74-24-8.2a.31.31,0,0,1-.32-.27,19.15,19.15,0,0,1-.18-3.24,20.61,20.61,0,0,0-.36-4.52,23.56,23.56,0,0,0-.52-2.33.35.35,0,0,1,.05-.27.3.3,0,0,1,.2-.13h0c7.2-.35,14,.65,19.07,2.8,5.27,2.23,8.56,5.64,9.26,9.59a32,32,0,0,1,.39,8.06.23.23,0,0,1,0,.11C381.75,316.17,370.14,324.05,356.59,326.43Zm-5-6.33c-1.27.22-2.57.35-3.79.46a39.75,39.75,0,0,1-4.75,0,27.12,27.12,0,0,1-4.76-.81,19.16,19.16,0,0,1-2.34-.84,10.39,10.39,0,0,1-2.23-1.29,6.51,6.51,0,0,1-1.85-2,4.48,4.48,0,0,1-.56-2.81,5,5,0,0,1,1.08-2.35.31.31,0,0,1,.19-.11.32.32,0,0,1,.33.47,4.52,4.52,0,0,0-.64,2,3.39,3.39,0,0,0,.62,2.08,5.54,5.54,0,0,0,1.62,1.52,13.53,13.53,0,0,0,4.18,1.66,28.48,28.48,0,0,0,4.5.66,46,46,0,0,0,9.1-.22c1.06-.13,2.13-.29,3.17-.47s2.35-.45,3.49-.73h0a.32.32,0,0,1,.36.21.32.32,0,0,1-.18.39,32.44,32.44,0,0,1-6.69,2ZM341,314.67h-.19a4.89,4.89,0,0,1-1.66-.87,3.4,3.4,0,0,1-1.14-1.88,3.79,3.79,0,0,1,.26-2.25,5.73,5.73,0,0,1,1.06-1.73,11.79,11.79,0,0,1,1.33-1.3,15.25,15.25,0,0,1,3-1.87,19.07,19.07,0,0,1,3.05-1.16h0a.32.32,0,0,1,.35.2l.08.23c.11.27.21.53.3.81a.29.29,0,0,1,0,.24.35.35,0,0,1-.18.16,27.15,27.15,0,0,0-2.82,1.17A16.36,16.36,0,0,0,341.7,308a7,7,0,0,0-2.12,2.28,2.58,2.58,0,0,0-.31,1.48,2.39,2.39,0,0,0,.63,1.36,4.77,4.77,0,0,0,1.21.95.31.31,0,0,1,.13.4A.28.28,0,0,1,341,314.67Zm14.39-36.95a.37.37,0,0,1-.25-.07.3.3,0,0,1-.11-.23c-.05-.68,0-1.23,0-1.8v-.27a.3.3,0,0,1,.26-.31l30.32-5.35a.32.32,0,0,1,.36.26l.52,2.95a.3.3,0,0,1-.05.24.32.32,0,0,1-.2.12Zm-18,2.6a.31.31,0,0,1-.35-.26l-.26-1.44a.32.32,0,0,1,.26-.37l5.11-.9a.31.31,0,0,1,.37.32c0,.47,0,1,0,1.62a.31.31,0,0,1-.27.32Zm18-6.23a.32.32,0,0,1-.25-.06.35.35,0,0,1-.12-.23c0-.62-.11-1.26-.21-2a.3.3,0,0,1,.25-.35l29.8-6.14a.32.32,0,0,1,.23.05.34.34,0,0,1,.14.21l.49,2.82a.32.32,0,0,1-.25.37Zm-18.48,3.26a.32.32,0,0,1-.37-.26l-.25-1.44a.31.31,0,0,1,.25-.36l5.47-1.13a.4.4,0,0,1,.24,0,.34.34,0,0,1,.13.22c.08.59.13,1.12.15,1.65a.3.3,0,0,1-.26.32Z"/><path class="cls-23" d="M360.81,311.71a.37.37,0,0,1-.27-.07.36.36,0,0,1-.11-.25v-.16a23.28,23.28,0,0,0-1.53-8.68,21.75,21.75,0,0,1-1.22-4.43,22,22,0,0,1-.37-4.58,19.93,19.93,0,0,0-.35-4.41,20.52,20.52,0,0,0-1.17-4.26,23.93,23.93,0,0,1-1.59-9,20,20,0,0,0-.36-4.41.73.73,0,1,0-1.43.25,21.14,21.14,0,0,1,.36,4.58A23.83,23.83,0,0,0,354.3,285a23.92,23.92,0,0,1,1.59,9,23.73,23.73,0,0,0,1.53,8.68,24.46,24.46,0,0,1,1.59,9v.11a.32.32,0,0,1-.27.31l-.28.05a.33.33,0,0,1-.27-.07.33.33,0,0,1-.11-.25v-.16a19.93,19.93,0,0,0-.35-4.41,20.71,20.71,0,0,0-1.17-4.26,21.17,21.17,0,0,1-1.23-4.43A22,22,0,0,1,355,294a19.85,19.85,0,0,0-.35-4.41,20.33,20.33,0,0,0-1.17-4.26,24,24,0,0,1-1.59-9,20.12,20.12,0,0,0-.36-4.42.68.68,0,0,0-.84-.59.69.69,0,0,0-.59.85,21.14,21.14,0,0,1,.36,4.58,23.73,23.73,0,0,0,1.53,8.67,24.46,24.46,0,0,1,1.59,9,20.57,20.57,0,0,0,.35,4.41,20.21,20.21,0,0,0,1.18,4.26,20.63,20.63,0,0,1,1.22,4.44,21.26,21.26,0,0,1,.37,4.57v.11a.32.32,0,0,1-.27.32l-.28.05a.34.34,0,0,1-.27-.08.32.32,0,0,1-.11-.24v-.17a23.28,23.28,0,0,0-1.53-8.67A21.75,21.75,0,0,1,353,299a21.3,21.3,0,0,1-.37-4.58,19.93,19.93,0,0,0-.35-4.41,20.52,20.52,0,0,0-1.17-4.26,23.93,23.93,0,0,1-1.59-9,20.65,20.65,0,0,0-.36-4.41.73.73,0,1,0-1.43.25,21.09,21.09,0,0,1,.36,4.57,23.73,23.73,0,0,0,1.53,8.68,24.56,24.56,0,0,1,1.59,9,23.19,23.19,0,0,0,1.53,8.68,20.5,20.5,0,0,1,1.22,4.43,21.26,21.26,0,0,1,.37,4.57v.12a.33.33,0,0,1-.27.31l-.28.05a.33.33,0,0,1-.27-.07.33.33,0,0,1-.11-.25v-.16a23.19,23.19,0,0,0-1.53-8.67,22.09,22.09,0,0,1-1.22-4.44,21.3,21.3,0,0,1-.37-4.58,23.19,23.19,0,0,0-1.53-8.67,21.75,21.75,0,0,1-1.22-4.43,21.09,21.09,0,0,1-.36-4.57,20.77,20.77,0,0,0-.36-4.42.68.68,0,0,0-.84-.59.69.69,0,0,0-.6.84,20.74,20.74,0,0,1,.37,4.58,23.73,23.73,0,0,0,1.53,8.68,20.33,20.33,0,0,1,1.22,4.43,21.3,21.3,0,0,1,.37,4.58,20.57,20.57,0,0,0,.35,4.41,20.21,20.21,0,0,0,1.18,4.26,24.56,24.56,0,0,1,1.59,9V313a.31.31,0,0,1-.27.31l-.29.05a.28.28,0,0,1-.26-.07.32.32,0,0,1-.11-.24v-.16a23.19,23.19,0,0,0-1.53-8.68,21.75,21.75,0,0,1-1.22-4.43,21.34,21.34,0,0,1-.37-4.58,19.93,19.93,0,0,0-.35-4.41,19.61,19.61,0,0,0-1.18-4.26,22,22,0,0,1-1.22-4.43,21.38,21.38,0,0,1-.37-4.58,19.85,19.85,0,0,0-.35-4.41.73.73,0,1,0-1.44.25,20.66,20.66,0,0,1,.37,4.58,20.57,20.57,0,0,0,.35,4.41,20.21,20.21,0,0,0,1.18,4.26,20.63,20.63,0,0,1,1.22,4.44,21.3,21.3,0,0,1,.37,4.58A23.19,23.19,0,0,0,348,304.3a21.75,21.75,0,0,1,1.22,4.43,21.3,21.3,0,0,1,.37,4.58v.11a.33.33,0,0,1-.27.31l-.28,0a.33.33,0,0,1-.27-.07.34.34,0,0,1-.11-.25v-.16a19.93,19.93,0,0,0-.35-4.41,20.52,20.52,0,0,0-1.17-4.26,21,21,0,0,1-1.23-4.43,22,22,0,0,1-.37-4.58,19.85,19.85,0,0,0-.35-4.41,20.65,20.65,0,0,0-1.17-4.27,23.92,23.92,0,0,1-1.59-9,20.12,20.12,0,0,0-.36-4.42,1.61,1.61,0,0,1,1.35-1.92,1.74,1.74,0,0,1,1.26.27,1.72,1.72,0,0,1,2.35-.41,1.61,1.61,0,0,1,1.09-.68,1.73,1.73,0,0,0,2.35-.42,1.69,1.69,0,0,1,1.26.27,1.63,1.63,0,0,1,1.09-.68,1.59,1.59,0,0,1,1.91,1.34,20.62,20.62,0,0,1,.37,4.57,20.61,20.61,0,0,0,.35,4.42,20.4,20.4,0,0,0,1.18,4.26,20.5,20.5,0,0,1,1.22,4.43,21.3,21.3,0,0,1,.37,4.58,19.93,19.93,0,0,0,.35,4.41,19.61,19.61,0,0,0,1.18,4.26,22.09,22.09,0,0,1,1.22,4.44,21.26,21.26,0,0,1,.37,4.57v.12a.33.33,0,0,1-.27.31Z"/><path class="cls-6" d="M235.32,8.24c-24.09,0-43.62,15.35-43.62,34.29s19.53,34.28,43.62,34.28,43.61-15.35,43.61-34.28S259.41,8.24,235.32,8.24Zm-2.81,5.2a.25.25,0,0,1-.16.05h0Z"/><path class="cls-24" d="M270.51,36.25c-.7-4.35-3.54-7.38-7.27-11.09s-9.55-6.68-15.37-8.3c-4.67-1.3-15.53-2.2-15.53-1.18s-.06,5.16-.06,5.16l1.34,2.74L233.29,27v4.46l1,4.12v8.23l1,2.75L235,51l1.34,6.17,1,3.77s.11,2.12.17,4.15c0,1.3.47,2.59,1.81,2.79,5,.76,11.37-2.22,16.61-4.48a44.11,44.11,0,0,0,7.76-6.1A23.1,23.1,0,0,0,270,45,26.21,26.21,0,0,0,270.51,36.25ZM244.12,39.1a5.12,5.12,0,0,1-3-5.17c.18-2.06,3.87-4.13,5.63-3.61s4.74,2.92,4.22,5S246.41,40,244.12,39.1Zm8,13.86c-.11,1.6-5.37,2.29-6.19,1.6s-.31-5.58,1.4-5.94C250.61,47.93,252.26,51.28,252.13,53Zm-1.24-26.61c-1.6.52-3.18.32-3.72-1-.43-1.1.06-1.16.89-1.83a4.23,4.23,0,0,1,4.05-.64C253.48,23.5,252.48,25.84,250.89,26.35Zm6.83,2.37c.4-.53.65-.35,1.38-.24a2.85,2.85,0,0,1,2.12,1.41c.24.76-1.47,1.11-2.44.64S257.21,29.37,257.72,28.72Zm4.19,14.81c-.71.34-5.49-1.25-5.49-2.12s3-5.54,3-5.54c1.78-.69,5.5,1.39,5.5,3S262.62,43.18,261.91,43.53Z"/><path class="cls-25" d="M58.85,165.92,52.49,167l.23-12.11v-5.85a20.21,20.21,0,0,1-2.39,3,1.36,1.36,0,0,1-.6.38c-.28.05-.46-.1-.55-.41l-2.12-5.34a49.15,49.15,0,0,0,9.67-14.38l.46-.13L62,134.12l.14.39a56,56,0,0,1-3.27,6.62ZM57,121.38l4.79,2.1.14.4A58.4,58.4,0,0,1,51.8,136.05a1.19,1.19,0,0,1-.55.38c-.19,0-.37-.12-.6-.41l-3.36-4.13a38,38,0,0,0,9.26-10.38Zm9.63,31.43-6,1.2-.32-.22V149l.27-.33,6.09-.93,12-2.13v-2.33l-10,1.75-6.86,1.35-.33-.27v-4.72l.33-.39,6.86-1.07,13.78-2.43,7.23-1.41.32.27v4.72l-.32.39-5,.78v2.29L91,143.28l.28.18v4.91l-.28.29-6.17.94.14,5.92c0,4.21-2,6.11-8.16,7.19-.92.17-1,.09-1.19-.35l-2-4.41-2.67,3-.42.07a22.39,22.39,0,0,0-5.57-4.63l0-.43,3.14-3.36Zm4-15.21L64,138.91l-.32-.27.14-6.48V127.8l-.14-5.49.32-.39,6.59-1,9.81-1.73,6.59-1.3.32.27-.13,5.78v3.88l.13,6.67-.32.38-6.59,1Zm10.46-14.24-11.11,2v1.87l11.11-2ZM70,131.5v1.91l11.11-1.95v-1.92Zm.28,20.67a29.74,29.74,0,0,1,5,3.76l-.14.35L74,157.45c1.75-.36,2.72-.58,3.41-.79,1-.22,1.24-.55,1.24-1.67v-4.31Z"/><path class="cls-25" d="M108.84,130a66.72,66.72,0,0,1-9.26,12.86c-.83.8-1,.74-1.84.37L93,141a58.94,58.94,0,0,0,14.47-23.88l.46-.22,6.4.64.09.46c-.64,1.75-1.33,3.51-2.12,5.28l10-1.89,4-.94,3.5,2.93a1,1,0,0,1,.47.86c0,.37-.33.62-.56,1.13a70.18,70.18,0,0,1-10.27,16.31,40.26,40.26,0,0,1,4.83,3.17l0,.46L120,150.93l-.41.07a48.8,48.8,0,0,0-15.53-9l-.09-.45,3.64-4.94.51-.19a54.28,54.28,0,0,1,6.31,2.59,58.88,58.88,0,0,0,7.19-11.42Z"/><path class="cls-25" d="M152.41,104.89l.32-.39,6.17-1.09.33.27v4.92l8.66-1.53,7.65-1.49.32.27v5.24l-.32.38-7.65,1.21-25.66,4.53v10c0,10.29-1.25,17.53-4.8,23.95-.18.32-.32.44-.5.47a.67.67,0,0,1-.55-.18l-4.29-3.32c2.86-5.88,3.64-11.07,3.64-19.68v-7.91l-.14-7.6.32-.38,7.65-1.21,8.85-1.56ZM150,129.22l.27.33a49.05,49.05,0,0,1-2.81,14l-.41.31-5.48-.91-.19-.44a45.93,45.93,0,0,0,3-13.24l.37-.35Zm8,10.9c0,1.31.23,1.41,2.12,1.08s2.3-.45,3-1.24.83-1.55,1-5l5.44,1.14c.5.1.55.28.5.85-.13,3.25-.59,5.67-2.12,7.16s-2.94,2.15-8.52,3.14c-7,1.24-8.15.55-8.15-3.57l.13-6.11v-12.3l.33-.43,5.85-1,.37.35Zm-1.2-25.05.46-.22a28.63,28.63,0,0,1,8,3.74v.47l-3.82,5.07-.46.08a29.08,29.08,0,0,0-7.65-4.41v-.46Zm13.64,7.42.46.06a38.58,38.58,0,0,1,6,9.55l-.18.5-5.39,3.62-.37-.07A39.13,39.13,0,0,0,165.35,126l.19-.45Z"/><path class="cls-25" d="M188.77,137c-.23,4.77-2.4,6.42-7.7,7.35-.55.1-.69,0-.87-.41l-2.31-5.44a28.15,28.15,0,0,0,3.41-.79c1-.26,1.25-.59,1.25-1.71V128c-.92.44-1.89.85-3,1.31l-.41-.16L177.34,124l.23-.47c1.85-.7,3.46-1.31,5-2v-7.63l-4.29.9-.32-.22v-5.1l.28-.33,4.33-.63V99.62l.37-.44,5.2-.92.42.26v8.93l3.45-.7.28.18v5.2l-.28.28-3.45.51v6c1-.5,2.07-1,3.13-1.58v4.73a1.53,1.53,0,0,1-1,1.62c-.69.4-1.43.81-2.16,1.22v.89l.18,8.53a42.7,42.7,0,0,0,8-10.35c.32-.62.6-1.23.87-1.84L193,123l-.32-.22v-4.49l.28-.33,6.08-.93.37-.07a16,16,0,0,0,.41-2l-.37.07-5.8,1.16-.33-.22v-4.4l.28-.33,2.63-.42a17.71,17.71,0,0,0-1.94-4l.14-.4,4.56-2.3.42,0a16.36,16.36,0,0,1,2.48,4l-.13.45-3.6,1.94,1.29-.18,14.38-2.54-3.69-.8a33.32,33.32,0,0,0,2.16-6.55l.37-.3,5.58.89.14.39a52.65,52.65,0,0,1-2.95,6l4.1-.81.27.18v4.49l-.27.29-5.85.89-7.74,1.36c-.14.68-.32,1.32-.46,2l9.44-1.66,5.85-1.18.28.19v4.58l-.28.29-5.85.89-11,1.94c-.23.55-.46,1.16-.69,1.71l8.66-1.53,3.13-.78,2.35,1.74a.82.82,0,0,1,.46.71,2.08,2.08,0,0,1-.32,1,31.58,31.58,0,0,1-5.25,7.38,45.77,45.77,0,0,0,9.77.61L219.22,137a.88.88,0,0,1-.69.59,4.13,4.13,0,0,1-.64,0,35.61,35.61,0,0,1-10.6-2.06,55.66,55.66,0,0,1-10.5,5.92,3.77,3.77,0,0,1-.83.29c-.37.06-.56-.05-.88-.41l-3-3.18-.18.17a1.89,1.89,0,0,1-.74.51.78.78,0,0,1-.64-.26ZM216.6,93.9a35.84,35.84,0,0,1,3.59,3.39l-.09.43A235.72,235.72,0,0,1,194.71,105a.72.72,0,0,1-.87-.36l-2.22-3.82c8.44-1.82,18.71-4.47,24.52-6.9Zm-14.19,39a21,21,0,0,1-3.23-3.09,42.34,42.34,0,0,1-6.5,7.84A56.08,56.08,0,0,0,202.41,132.94Zm1.89-23.64-.42-.11a17.93,17.93,0,0,0-1.66-4.76l.19-.36,4.46-2,.42.07a13.15,13.15,0,0,1,2.07,4.4l-.18.46ZM204,126.85a14.41,14.41,0,0,0,3.13,2.35,20.83,20.83,0,0,0,2.95-3.42Z"/><path class="cls-25" d="M241.8,124.17c-.46-.34-.88-.79-1.29-1.13-3.32,4.09-6.18,5.81-9.45,6.39C227.61,130,224,128,224,122.3c0-5.1,1.7-9.37,5.57-13.89-1.06-2.2-2.07-4.55-3.18-7.07l.14-.44,5.11-3.24.42.06c1,2.17,1.8,4.23,2.67,6a29.24,29.24,0,0,1,10.09-4.63,62.88,62.88,0,0,0,1.43-7l.41-.4,6.13.14.28.37c-.32,2-.92,4.79-1.34,6.46,5.76.48,10.88,4.86,10.88,12.58,0,8.33-4.93,13.92-13.37,18a1.13,1.13,0,0,1-1.24-.11l-5.07-3.78c8.57-3.2,12.81-7.55,12.81-12.79,0-4.58-2.26-7.65-5.76-8.11a72.26,72.26,0,0,1-5.34,12.46c.55.46,1.15,1,1.79,1.55v.47L242.26,124Zm-11.71-3.88c0,2,.74,2.49,1.62,2.33,1.29-.22,2.62-1.12,4.6-3.85a42.11,42.11,0,0,1-4-5.38A14.51,14.51,0,0,0,230.09,120.29Zm13-15a21.08,21.08,0,0,0-5.89,3,38.59,38.59,0,0,0,3,4.28A47,47,0,0,0,243.13,105.26Z"/><path class="cls-25" d="M270.45,86.79l6.49-1.1.37.26c-.23,5.84-.46,9.86-.69,14.72-.18,4.1-.46,9.39-.46,13,0,3.37,1.57,4.59,4.33,4.1,5.3-.93,11.29-6.2,15.21-14.14l4,4.72a1.06,1.06,0,0,1,.13,1.47c-4.56,8.15-11.79,13.73-18.84,15s-11.7-1.26-11.7-9.16c0-6.51.32-10.91.46-15.2.14-3.67.37-7.83.37-13.3Z"/><path class="cls-25" d="M332.6,90.19l6-1.21.41.21v6l-.32.43-6.22,1-6.82,1.2a29.58,29.58,0,0,1-2.9,10,34.07,34.07,0,0,1-8.48,9.82,2.68,2.68,0,0,1-.92.54,1.46,1.46,0,0,1-.83-.18l-6.13-2.43c4.79-3.09,7.6-5.83,9.63-9.28a21.76,21.76,0,0,0,2.21-7.12l-8.34,1.47-6.13,1.22-.32-.32v-6l.42-.35,6.12-.94,8.62-1.52v-5c-2.86.93-5.76,1.77-8.66,2.6-1.06.29-1.15.25-1.57-.19l-3.73-4.16c9.81-2.62,18-5.61,25.06-9.52h.51l4.42,4.18-.09.53a75.09,75.09,0,0,1-8.52,3.93v6.27Z"/><path class="cls-25" d="M356.32,85.77a73.08,73.08,0,0,1-5,8,1.47,1.47,0,0,1-.64.58,2.24,2.24,0,0,1-1-.15L344,92.53a57.55,57.55,0,0,0,10.92-21.2l.37-.21,6.59.8.14.45c-.74,2.19-1.48,4.28-2.35,6.31l13.86-2.45,7-1.37.41.2v6.13l-.32.43-7.1,1.11-2.3.41c-1.43,10.64-5,18.89-13.64,26.69a2.58,2.58,0,0,1-1,.69c-.28,0-.55-.09-1.06-.28l-5.85-2.43c8.06-6,12.95-14.12,14-23.34Z"/><path class="cls-25" d="M392.9,78.62a22.87,22.87,0,0,1,4.2,6.89l-.19.45-5,3.22-.42-.07a23.73,23.73,0,0,0-4-7l.18-.4,4.84-3Zm22.58-3.37c-1.89,7.25-3.5,11-6.4,15.72-3,4.93-6.41,8.34-11.29,12.15a2.08,2.08,0,0,1-.74.41,1,1,0,0,1-.69-.16L391.48,101c5.94-4.23,8.7-7,11.74-11.62s4.52-8.37,6-15.37l.42-.26,5.62,1.12Zm-14.05-.57a19.84,19.84,0,0,1,4.24,6.56l-.19.45-4.88,3.2-.42,0a25.06,25.06,0,0,0-4.14-6.8l.14-.4,4.83-3Z"/><path class="cls-25" d="M430.86,79.27l.24,17.83-8,1.42.23-18V60.35l.37-.4,6.82-1.2.36.31V74.69l4-5.19.46-.13a45.51,45.51,0,0,1,10.36,5.33l0,.48-4.47,6.44-.46.13a41,41,0,0,0-9.82-5.61Z"/><path class="cls-26" d="M449.25,80.51c4.38-4.39,7.48-8,9.75-11.85-1.88.49-3.84.87-5.68,1.2l-.24-.2-.15-4.86.27-.29c2.94-.52,5.84-1.11,8.73-1.82A48.63,48.63,0,0,0,463.78,57l.31-.26,5.36-.15.24.24c-.47,1.47-.94,2.75-1.37,4,2-.66,3.91-1.37,5.87-2.19l.35.14.4,4.62-.24.4c-2.86,1.1-6.07,2.18-9.32,3.15-.63,1.07-1.49,2.45-2.27,3.55a12.63,12.63,0,0,1,3.68-1.17,3.92,3.92,0,0,1,4.78,3c2.47-1.38,5.25-2.87,8.3-4.44l.39.09,2.43,4.46-.2.39c-3.95,1.73-7.32,3.36-10.22,5,.08,1.53.12,3.48.16,5.38l-.27.28L467,84.54l-.32-.18V81.1C464.29,82.67,463,84,463,85.38s1.57,1.43,5.06.85a75.2,75.2,0,0,0,10.21-2.63l.4.17L479,89l-.24.36c-3.72,1-7,1.75-11.59,2.56-7.91,1.4-10-1.62-10-5,0-3.81,3.17-7,6.81-9.79.71-.52,1.49-1,2.35-1.6-.2-1-.78-1.38-2-1.17a8.85,8.85,0,0,0-4.46,2.18,76.88,76.88,0,0,0-6.82,7.64l-.39.11L449.25,81Z"/><path class="cls-25" d="M66.92,197.51A114.83,114.83,0,0,1,59.11,210a2.31,2.31,0,0,1-1,.91,3.4,3.4,0,0,1-1.57-.24L47.78,208a89.44,89.44,0,0,0,17-33l.57-.32L75.59,176l.21.69c-1.14,3.41-2.29,6.66-3.65,9.82l21.57-3.81,10.89-2.14.65.33v9.53l-.5.67-11,1.73-3.58.63C87.92,210,82.4,222.8,68.92,234.93c-.71.63-1.14,1-1.57,1.07a3.42,3.42,0,0,1-1.65-.43l-9.1-3.78c12.54-9.35,20.14-22,21.78-36.3Zm27.44-24.85,3.73-3.35.72-.2a35.83,35.83,0,0,1,7.31,6.43l-.07.74-4,3.53-.71.13a35.15,35.15,0,0,0-7.1-6.61Zm6.74-5.77,3.66-3.34.71-.2a33.83,33.83,0,0,1,7.1,6.25l-.07.74-3.73,3.42-.72.13a33.15,33.15,0,0,0-7-6.33Z"/><path class="cls-25" d="M122.38,185.91a35.55,35.55,0,0,1,6.52,10.72l-.28.7-7.74,5-.65-.1a36.64,36.64,0,0,0-6.3-10.9l.28-.63,7.53-4.67Zm35.12-5.24c-2.94,11.29-5.45,17-10,24.46-4.66,7.66-10,13-17.56,18.89a3.11,3.11,0,0,1-1.15.63,1.59,1.59,0,0,1-1.07-.24l-7.6-3.69c9.24-6.57,13.54-10.82,18.27-18.06,4.66-7.08,7-13,9.32-23.91l.65-.41,8.74,1.74Zm-21.86-.88A30.59,30.59,0,0,1,142.23,190l-.28.71-7.6,5-.65,0a39.76,39.76,0,0,0-6.44-10.58l.21-.62,7.52-4.67Z"/><path class="cls-25" d="M180,187.18l.35,27.73-12.46,2.2.35-28V157.74l.58-.61,10.6-1.87.58.48v24.31l6.16-8.07.72-.2A70.71,70.71,0,0,1,203,180.07l-.07.74-7,10-.72.2A64.08,64.08,0,0,0,180,182.3Z"/><path class="cls-7" d="M212.6,163.56l7.58-1.28.43.31c-.27,6.81-.54,11.5-.81,17.17-.21,4.78-.53,11-.53,15.21,0,3.93,1.82,5.36,5,4.79,6.18-1.09,13.17-7.24,17.74-16.5l4.67,5.5a1.23,1.23,0,0,1,.16,1.72c-5.32,9.51-13.76,16-22,17.47s-13.65-1.47-13.65-10.69c0-7.59.37-12.73.53-17.73.17-4.28.43-9.13.43-15.52Z"/><path class="cls-7" d="M250.24,175.1l-1.78-6.89.22-.48c15-6.35,27-11,42.14-16.43l.48.19,1.56,7-.37.56c-6,1.49-11.18,3.5-14.46,6.8-5,5-7.8,10.44-7.8,15.57,0,4.2,2,6,5.22,6.45,2.95.41,7.25,0,12.84-1.06l.38.31-.43,8.37-.43.41c-6.72,1.29-12.58,1.61-17,.48-5.33-1.35-8.66-5.35-8.66-12.77,0-6.72,3.71-13.16,7.2-16.67-5.26,2.24-11,4.79-18.65,8.31Z"/><path class="cls-25" d="M315.44,154.2c-4.51,1.45-9,2.68-13.76,3.74l-.5-.35-.43-8.73.5-.6c4.95-1.09,9.68-2.29,14.19-3.74l.07-12.75.58-.61,9.31-1.64.5.35L325.76,141c3-1.19,5.66-2.38,8.46-3.68l.57.27.93,8.64-.5.67c-3.22,1.29-6.45,2.66-9.6,3.8l-.07,7.07c4.51-2.47,10-5,15.05-5.85,11.75-2.07,17.84,4.35,17.84,12.57,0,11.13-7.45,18.41-18.06,20.28-4.23.75-7.38.65-10.25-.66a1,1,0,0,1-.36-1.25l2.23-9.2a16.46,16.46,0,0,0,7.81.66c4.15-.87,7.31-3.69,7.31-7.91,0-3.71-2.8-5.83-7.74-5-4.45.78-8.6,2.9-13.69,6.34v16.3c0,4-2.22,7.16-7.67,8.12-4.66.82-17.91-3.17-17.91-10.38,0-4.44,7.16-13.19,15.26-18.7Zm.15,19.48c-3.16,2.45-5.24,4.85-5.24,5.87,0,1.38,3.23,2.56,4.38,2.36.64-.12.86-.52.86-1.54Zm26-32.9,5.09-8.53.79-.29c6.16.95,12.18,3.09,16.62,7l.07.79-5.37,8.66-.79.35a31.24,31.24,0,0,0-16.2-7.47Z"/><path class="cls-25" d="M384.39,183.88l-9.89,1.75.36-18.84v-9.1a32.23,32.23,0,0,1-3.72,4.74,2.18,2.18,0,0,1-.94.6c-.43.07-.71-.17-.86-.65l-3.29-8.3a76.62,76.62,0,0,0,15.05-22.37l.71-.2,7.46,2.91.21.61a87.36,87.36,0,0,1-5.09,10.29Zm-2.86-69.28,7.45,3.28.21.61a90.55,90.55,0,0,1-15.76,18.94,1.92,1.92,0,0,1-.86.58c-.29.06-.57-.18-.93-.63L366.4,131a58.76,58.76,0,0,0,14.41-16.15Zm15,48.88-9.38,1.88-.51-.35v-7.5L387,157l9.46-1.45,18.71-3.3v-3.63l-15.48,2.72-10.68,2.11-.5-.42v-7.35l.5-.6,10.68-1.67,21.43-3.78,11.25-2.2.5.42v7.35l-.5.6L424.67,147v3.57l9.67-1.93.43.29v7.64l-.43.44-9.6,1.47.22,9.21c0,6.55-3.09,9.49-12.69,11.19-1.43.25-1.58.13-1.86-.55l-3.16-6.87-4.15,4.6-.65.11a34.39,34.39,0,0,0-8.67-7.2l.07-.67,4.88-5.23Zm6.17-23.64-10.25,2-.5-.42.21-10.08V124.6l-.21-8.55.5-.6,10.25-1.59,15.26-2.69,10.25-2,.5.42-.21,9v6l.21,10.37-.5.6-10.25,1.59Zm16.26-22.15-17.27,3v2.91l17.27-3Zm-17.27,12.65v3l17.27-3v-3Zm.43,32.16a46,46,0,0,1,7.74,5.84l-.21.55L408,170.7c2.72-.55,4.23-.89,5.3-1.22,1.51-.34,1.94-.85,1.94-2.6v-6.69Z"/><path class="cls-26" d="M445.79,124l7.42-.27.32.38c-.16,3.19-.86,6.43-2.47,12.28a55.3,55.3,0,0,0-2,13,25.17,25.17,0,0,0,.33,5.46c.16.68.69.64,1.5-.32.86-1.13,2-2.81,2.74-4l1.56.54a42.62,42.62,0,0,0-2.53,12c-.05,2.47-1.23,4.21-3.7,4.7-2.16.43-3.44-.54-4.68-2.51-1.18-1.81-2.69-6-2.69-13.82a83.23,83.23,0,0,1,2.37-17,50.27,50.27,0,0,0,1.39-10Zm38.87,33.54a89.63,89.63,0,0,1-12.64,3.1c-10.8,1.9-13.65-3.11-14.94-8.94l.27-.54,5.75-3.68.49.07c1,5,3.11,6.22,10.32,4.9a68,68,0,0,0,10-2.92l.48.24.49,7.23Zm-23.44-30.75c1.77-.25,3.5-.5,5.16-.8a93.24,93.24,0,0,0,15.16-4l.38.26.32,6.82-.32.5a86.13,86.13,0,0,1-15.54,4.1c-1.72.3-3.39.6-5.11.79l-.37-.42v-6.77Z"/><path class="cls-26" d="M55.89,272.69c-3.87,1.24-7.74,2.3-11.8,3.2l-.43-.3-.36-7.48.43-.51c4.23-.94,8.29-2,12.16-3.21L56,253.47l.49-.52,8-1.41.43.3-.12,9.56c2.58-1,4.85-2,7.25-3.15l.49.23.8,7.4-.43.58c-2.77,1.11-5.53,2.28-8.23,3.26l-.06,6.06a44.69,44.69,0,0,1,12.89-5c10.07-1.78,15.3,3.72,15.3,10.77,0,9.54-6.39,15.78-15.48,17.39-3.62.63-6.33.55-8.78-.58a.87.87,0,0,1-.31-1.06l1.9-7.89a14.27,14.27,0,0,0,6.7.57c3.56-.75,6.26-3.16,6.26-6.78,0-3.18-2.39-5-6.63-4.26-3.81.68-7.37,2.49-11.73,5.44v14c0,3.43-1.91,6.13-6.57,7-4,.7-15.36-2.72-15.36-8.89,0-3.81,6.15-11.31,13.08-16ZM56,289.38c-2.7,2.1-4.48,4.16-4.48,5,0,1.19,2.76,2.19,3.74,2,.55-.1.74-.44.74-1.31ZM78.3,261.19l4.36-7.32.68-.24c5.28.81,10.44,2.65,14.25,6l.06.67L93,267.76l-.67.3a26.7,26.7,0,0,0-13.88-6.4Z"/><path class="cls-26" d="M147,257.87v8l.13,5.41a6.39,6.39,0,0,0,.49-.59l.55-.09,5.78,4.09-.07.64a88.1,88.1,0,0,1-9.7,7.69c4,.86,8.78.76,14.25.36l-4.67,7.93a1.65,1.65,0,0,1-1.41.56c-6.51-.1-12.22-1.21-16.58-3.43a25,25,0,0,1-5.59-3.88l-.49,5.2a1.4,1.4,0,0,1-1,1.37c-7.31,2.78-16.27,6-25.85,9.11l-.56-.09-2.64-6.77.43-.64c3.32-.89,6.45-1.76,9.4-2.65l.06-25.52-.12-3.91L106,262.72a3.71,3.71,0,0,1-1,.49.69.69,0,0,1-.68-.32l-5.46-5.64c11.79-5.89,20.08-12.65,26.77-20.94l.68-.31,7.86.55.18.59a10.22,10.22,0,0,1-.67.93,54.61,54.61,0,0,0,24.81,7.16l-4.36,8.32c-.31.55-.43.82-.74.88a1.72,1.72,0,0,1-.67-.07c-1.91-.35-3.75-.84-5.65-1.37Zm-22.47-8.07.43-.58,7.49-1.32.43.36v4.87l4.91-.87,4.49-.85a68.1,68.1,0,0,1-13.7-6.88,89.36,89.36,0,0,1-12.71,11.54l2.64-.41,6-1.06Zm-6.58,11.76v3l20.58-3.63v-3Zm0,8.48v3.24l20.58-3.62v-3.25Zm0,9.11v8.29q5.63-1.83,11.24-3.85A29.13,29.13,0,0,1,125,277.9Zm15.42-2.72a23.77,23.77,0,0,0,4.36,3.84,60.58,60.58,0,0,0,6.33-5.6l-6.27,1Z"/><path class="cls-26" d="M191.85,275.09c0,7.11-2,9.78-12.28,11.59-1.23.21-1.35.11-1.6-.47l-3.07-6.76c2.89-.51,5.53-1.1,6.57-1.4,1.29-.36,1.66-.8,1.66-2.29v-.69l-10.44,1.84-8.29,1.59-.49-.41v-5.3l.49-.46,8.29-1.28,10.44-1.84v-1.87l-16.58,2.92-8.11,1.56-.49-.42v-5.3l.49-.46,8.11-1.24,16.58-2.92v-1.75l-10.38,1.83-8.11,1.55-.49-.41v-5.3l.49-.46,8.11-1.24,10.38-1.83v-2l-8.54,1.51-8,1.6-.37-.43.31-5.36v-2.3l-.19-5,.43-.51,7.86-1.2,8.54-1.51v-2.12l-15.35,2.71-8.73,1.66-.49-.41v-5.74l.49-.46,8.73-1.35,15.35-2.71V226.8l.55-.59,7.37-1.3.55.4v3.43l14.81-2.61,9.39-1.85.43.37v5.73l-.43.51-9.39,1.54L191.6,235v2.12l8.79-1.55,8-1.6.43.36-.18,5.09v2.31l.18,5.2-.43.64-8,1.22-8.79,1.55v2l8.85-1.56,9.15-1.8.43.3-.19,6.52v.69l6.88-1.34.43.36v5.67l-.43.52-6.88,1.15.31,9.86-8.6,1.51v-2.43l-9.76,1.72Zm-17.32-29.62V248l8.6-1.52V244ZM191.6,245l8.73-1.53v-2.56l-8.73,1.54Zm10,13.22v-1.75l-10,1.76V260Zm0,7.73v-1.87l-9.88,1.74.06,1.86Z"/><path class="cls-26" d="M219.51,259.47c5.16-5.17,8.8-9.41,11.47-14-2.21.57-4.51,1-6.68,1.41l-.27-.23-.19-5.72.33-.34c3.45-.61,6.86-1.31,10.27-2.14a59.64,59.64,0,0,0,2.17-6.65l.36-.3,6.32-.18.27.28c-.55,1.74-1.1,3.24-1.61,4.68,2.3-.78,4.61-1.61,6.91-2.57l.42.16.46,5.44-.28.47c-3.36,1.29-7.14,2.57-11,3.71-.74,1.25-1.76,2.88-2.68,4.17a14.89,14.89,0,0,1,4.33-1.38,4.62,4.62,0,0,1,5.62,3.5c2.91-1.63,6.18-3.38,9.77-5.23l.46.11,2.86,5.25-.23.46c-4.66,2-8.62,4-12,5.82.1,1.8.14,4.09.19,6.33l-.32.34-6.09,1.3L240,264v-3.84c-2.81,1.85-4.37,3.44-4.37,5s1.84,1.69,5.94,1a90,90,0,0,0,12-3.1l.46.19.41,6.15-.27.43c-4.38,1.14-8.25,2.06-13.64,3-9.31,1.64-11.75-1.9-11.75-5.93,0-4.49,3.73-8.28,8-11.52q1.24-.92,2.76-1.89c-.23-1.13-.92-1.61-2.3-1.37a10.42,10.42,0,0,0-5.25,2.56,87.75,87.75,0,0,0-8,9l-.46.12L219.51,260Z"/><path class="cls-26" d="M286,257.24a83,83,0,0,1-18.91,13.07,2.29,2.29,0,0,1-.74.31c-.31.06-.49-.1-.74-.37l-5-5.41c8.23-3.94,14.86-7.86,20.39-12.45l-7.8,1.38-10.2,2-.43-.36v-6.48l.56-.41,10.07-1.59,12.71-2.24v-3.25l.31-.42,8.29-1.47.37.31v3.25l12.9-2.28,10.19-2,.43.36v6.36l-.43.51-10.19,1.61-8.48,1.5c6,2.62,12.65,4.06,21.07,4.45l-5.1,7.95a1.07,1.07,0,0,1-.86.58,1.63,1.63,0,0,1-.74,0,59.59,59.59,0,0,1-19-6.76l.31,11L285.71,268Zm-24.19-19.93a120.79,120.79,0,0,0,14.86-8.54l.92,6.57c.12.79,0,.94-1,1.74-3,2.22-6.45,4.51-11.12,7.58l-.55,0-3.32-6.71Zm11.79-11.81-.56.23a46.26,46.26,0,0,0-10.07-5l-.12-.48,4.05-6.2.56-.29A37.6,37.6,0,0,1,277.66,218l.12.54Zm21.06-12.44,7.25-1.47.49.35-.18,6.77v8.79l.18,9.2-.55.47-6,.93-10,1.76-6.75,1.32-.43-.3.18-8.95v-9.35l-.18-6.58.43-.39,6.63-1c.55-2.22,1-4.29,1.41-6.49l.55-.34h7.8l.19.66c-.55,1.72-1.11,3.31-1.6,4.71Zm-8,7.78v3.3l7.61-1.34v-3.3Zm0,12.47,7.61-1.34v-3.49l-7.61,1.34ZM318,211a85.17,85.17,0,0,1-9.89,9,1.7,1.7,0,0,1-.79.39.74.74,0,0,1-.8-.36l-4.12-4.76a67,67,0,0,0,9.28-9.55l.61-.17,5.77,4.78ZM314,235.85l-.62.17a57.81,57.81,0,0,0-10.44-5.83l-.06-.55,4.12-6.27.73-.26a57.52,57.52,0,0,1,10.75,5.09l.06.61Z"/><path class="cls-26" d="M328,204.82l8.66-1.46.49.35c-.31,7.78-.61,13.14-.92,19.62-.25,5.46-.62,12.52-.62,17.38,0,4.49,2.09,6.12,5.78,5.47,7.06-1.25,15-8.27,20.26-18.85l5.35,6.29a1.41,1.41,0,0,1,.18,2c-6.08,10.86-15.72,18.3-25.12,20s-15.6-1.68-15.6-12.22c0-8.67.43-14.54.62-20.25.18-4.9.49-10.44.49-17.74Z"/><path class="cls-26" d="M381,216.74a7.66,7.66,0,0,0-.5,2.4c0,1.37,1.23,1.34,4.67.73.49-3.58.86-6.2,1.23-8.88-4.3.5-7.92.83-11.24,1l-.37-.5.49-7.32.5-.46a97.27,97.27,0,0,0,11.85-1c.49-3.51,1-7.09,1.35-10.28l.55-.41,8.54-.5.43.48c-.37,2.69-.86,5.77-1.41,8.92,2.82-.62,5.59-1.42,8.47-2.31l.49.29.49,7.27-.55.6c-3.13.93-6.69,1.8-10.32,2.57-.49,3-.92,6-1.29,8.83A117.19,117.19,0,0,0,407,214.27l.55.28.8,7.15-.37.57c-5.28,1.8-10.13,3.22-14.62,4.38a53.82,53.82,0,0,0-.61,7.1c0,3.11,1.41,4.05,6.08,3.23,8.23-1.46,10.5-3.48,10.5-6,0-1.3-.61-3.19-3.5-5.86l7.31-3.79a1.12,1.12,0,0,1,1.35.14c4.48,4,5.22,6.81,5.22,9.68,0,6.24-5,11.74-20.82,14.52-12,2.13-15.48-2.19-15.48-8.56a69.1,69.1,0,0,1,.62-8.77c-8.17,1-11.55,0-11.55-5a13.54,13.54,0,0,1,1.11-5.25l.49-.34,6.57-1.4Z"/><path class="cls-26" d="M427.37,213.54,425,205.79l.31-.62c4.24-1.74,8.84-4,12.65-5.78,3.62-1.64,6.14-2.83,8.35-3.22,7.86-1.39,13,3.51,13,15.24,0,15-7.86,22.9-20.76,28.48-.55.09-.74.06-1-.32l-5.84-6.08c12.29-4.78,17.57-10.58,17.57-18.94,0-7-1.29-9.31-3.87-8.86a27.58,27.58,0,0,0-6.27,2.67c-3.25,1.57-7.18,3.51-11.17,5.34Zm5.84-22.6,2.27-8.2.55-.28a82,82,0,0,0,18.43-.26l.37.37-1.42,8.8-.49.4a123.86,123.86,0,0,1-19.47-.38Z"/><path class="cls-26" d="M481,231c-.66,3.86-4.24,7-7.86,7s-6.22-3.14-5.57-7,4.25-7.06,7.94-7.05S481.61,227.1,481,231Zm.68-11.5-10.92,0,6.56-39,10.92,0Z"/><polyline class="cls-27" points="29.63 174.19 29.63 105.6 173.19 81.05"/><line class="cls-27" x1="307.9" y1="63.58" x2="451.45" y2="39.03"/><line class="cls-27" x1="150.82" y1="307.22" x2="318.04" y2="279.96"/><line class="cls-27" x1="44.9" y1="324.49" x2="119.55" y2="312.32"/><polyline class="cls-27" points="523.3 176.75 523.3 245.34 401.84 266.12"/><path class="cls-7" d="M64,358.18v-1.82h.75c.28,0,2.06-.17,2.06-1.47s-1.33-1.24-1.78-1.24c-1.15,0-1.95.18-2,1.48h-2.8c.33-2.81,2.3-3.78,4.89-3.78,2.79,0,4.4,1.28,4.4,3.2a2.52,2.52,0,0,1-1.83,2.54,2.8,2.8,0,0,1,2.12,2.81c0,2.66-2.36,3.89-5.05,3.89s-4.71-1.2-4.92-4.26h2.81a1.89,1.89,0,0,0,2.14,2c.28,0,2.21-.05,2.21-1.68,0-.95-.67-1.69-2.14-1.69Z"/><path class="cls-7" d="M71.06,363.46v-2.71h2.63v2.67c0,1.82-1.57,2-2.63,2.05v-1c.94-.09,1.21-.31,1.27-1.06Z"/><path class="cls-7" d="M84.65,357.76c0,1.44-.35,6-5,6a4.53,4.53,0,0,1-4-1.93,9,9,0,0,1-1-4.48c0-1.44.35-6,5-6C84,351.35,84.65,355.33,84.65,357.76Zm-7.2-.19c0,.49,0,4,2.22,4s2.2-3.45,2.2-4,0-4-2.2-4S77.45,357,77.45,357.57Z"/><path class="cls-7" d="M95.68,357.76c0,1.44-.34,6-5,6a4.53,4.53,0,0,1-4-1.93,9,9,0,0,1-1-4.48c0-1.44.35-6,5-6C95.07,351.35,95.68,355.33,95.68,357.76Zm-7.19-.19c0,.49,0,4,2.21,4s2.2-3.45,2.2-4,0-4-2.2-4S88.49,357,88.49,357.57Z"/><path class="cls-7" d="M106.71,357.76c0,1.44-.34,6-5,6a4.54,4.54,0,0,1-4-1.93,9.09,9.09,0,0,1-1-4.48c0-1.44.34-6,5-6C106.1,351.35,106.71,355.33,106.71,357.76Zm-7.19-.19c0,.49,0,4,2.21,4s2.2-3.45,2.2-4,0-4-2.2-4S99.52,357,99.52,357.57Z"/><path class="cls-7" d="M110.09,360.1v4.21h-1.75v-9.77h9.29v8.27c0,1.05-.64,1.48-2.16,1.48a3.17,3.17,0,0,1-.47,0,4,4,0,0,0-.54-1.83,3.54,3.54,0,0,0,1,.16c.43,0,.43-.12.43-.5v-2Zm2.06-4h-2.06v2.39h2.06Zm1.68,2.39h2.1v-2.39h-2.1Z"/><path class="cls-7" d="M128.65,356.2c-2.73,0-5.1,2.41-5.1,4.2,0,1.28,1.63,1.91,3.13,2a15.23,15.23,0,0,0-.83,2c-.89-.25-4.06-1.13-4.06-3.77a5,5,0,0,1,2-3.8,29.35,29.35,0,0,0-4.57.7l-.26-2.08a35.08,35.08,0,0,0,4.92-.26,26.14,26.14,0,0,0,4.43-.8Zm-1.84,1.57a6.65,6.65,0,0,1,1,1.18c-.31.22-.46.35-.85.67a9.2,9.2,0,0,0-1-1.25ZM128,357a6.83,6.83,0,0,1,1,1.16,9.76,9.76,0,0,0-.81.68,9,9,0,0,0-1-1.25Z"/><path class="cls-7" d="M65.37,367.49H68v7.09h1.83v2.25H68v2.44h-2.7v-2.44H59.75v-2.27Zm0,7.09v-4.15l-3.29,4.15Z"/><path class="cls-7" d="M71.06,379.27v-2.71h2.63v2.67c0,1.82-1.57,2-2.63,2v-.95c.94-.09,1.21-.31,1.27-1.06Z"/><path class="cls-7" d="M84.65,373.57c0,1.44-.34,6-5,6a4.54,4.54,0,0,1-4-1.93,9.09,9.09,0,0,1-1-4.48c0-1.44.34-6,5-6C84,367.16,84.65,371.14,84.65,373.57Zm-7.19-.19c0,.49,0,4,2.21,4s2.2-3.45,2.2-4,0-4-2.2-4S77.46,372.84,77.46,373.38Z"/><path class="cls-7" d="M95.68,373.57c0,1.44-.34,6-5,6a4.53,4.53,0,0,1-3.95-1.93,9,9,0,0,1-1.05-4.48c0-1.44.34-6,5-6C95.07,367.16,95.68,371.14,95.68,373.57Zm-7.19-.19c0,.49,0,4,2.22,4s2.19-3.45,2.19-4,0-4-2.19-4S88.49,372.84,88.49,373.38Z"/><path class="cls-7" d="M106.72,373.57c0,1.44-.35,6-5,6a4.53,4.53,0,0,1-3.95-1.93,9,9,0,0,1-1.05-4.48c0-1.44.35-6,5-6C106.1,367.16,106.72,371.14,106.72,373.57Zm-7.2-.19c0,.49,0,4,2.22,4s2.2-3.45,2.2-4,0-4-2.2-4S99.52,372.84,99.52,373.38Z"/><path class="cls-7" d="M110.39,375.91v4.21h-1.74v-9.78h9.29v8.28c0,1.05-.64,1.48-2.17,1.48a2.92,2.92,0,0,1-.46,0,4.15,4.15,0,0,0-.54-1.83,3.46,3.46,0,0,0,1,.16c.43,0,.43-.12.43-.5v-2Zm2.07-4h-2.07v2.39h2.07Zm1.68,2.39h2.09V372h-2.09Z"/><path class="cls-7" d="M121.33,375.23v-1a9.21,9.21,0,0,1-1.43,1.23,3.07,3.07,0,0,0-1.26-1.28,9,9,0,0,0,3.38-3.88l1.46,1a.19.19,0,0,1,.11.18c0,.08-.15.11-.28.12a13.77,13.77,0,0,1-1.48,2.1h4.77a6.82,6.82,0,0,1-1.19-2H124v-1.54h2.77a4.91,4.91,0,0,0,2.91,3.84,3.53,3.53,0,0,0-1,1.43,5.11,5.11,0,0,1-1.18-.88c-.11,5.06-.4,5.56-2.94,5.56-.14,0-.24,0-.36,0a3.8,3.8,0,0,0-.47-1.72,7.67,7.67,0,0,0,1,.1c.39,0,.63,0,.77-.34a9.73,9.73,0,0,0,.26-2.84h-1.55a5.62,5.62,0,0,1-3.88,4.9,3.64,3.64,0,0,0-1.15-1.42c2.84-.84,3.27-2.23,3.4-3.48Z"/><path class="cls-7" d="M133.84,380.11h-1.63v-2.92a8.65,8.65,0,0,1-.9,1.25,3.14,3.14,0,0,0-1.38-1,8.3,8.3,0,0,0,2-3.21h-1.82v-1.44h2.06v-1.14a7.64,7.64,0,0,1-1.32.14,4.61,4.61,0,0,0-.71-1.28,11,11,0,0,0,4.22-.72l1,1a.24.24,0,0,1,0,.14c0,.1-.09.14-.18.14a.64.64,0,0,1-.28-.07,9.28,9.28,0,0,1-1.12.36v1.4h1.68v1.44H134a9.18,9.18,0,0,0,1.7,1.82,5.79,5.79,0,0,0-.85,1.16,5.4,5.4,0,0,1-1-1.05Zm3.81-9.18a.18.18,0,0,1,.18.13c0,.1-.11.18-.18.22v6.28h-1.56v-6.71Zm2.49-.82a.14.14,0,0,1,.14.14c0,.08-.05.13-.27.25v8.3c0,.76-.08,1.32-1.66,1.32a5.67,5.67,0,0,1-.78-.05,4.1,4.1,0,0,0-.55-1.58,6.19,6.19,0,0,0,1.09.14c.12,0,.31,0,.31-.3V370Z"/><path class="cls-7" d="M147.13,379.6h-1.64v-3h-1.94a10.47,10.47,0,0,1-1,3.55,3.89,3.89,0,0,0-1.8-.64,7.76,7.76,0,0,0,1.16-4.71v-4.51h8.79v8.4c0,1.29-.74,1.37-2.36,1.36a3.65,3.65,0,0,0-.6-1.68,7.36,7.36,0,0,0,.82.06c.45,0,.46-.07.46-.48v-1.35h-1.85Zm-1.64-7.87h-1.83v1h1.83Zm0,2.4h-1.83v1h1.83Zm1.64-1.4H149v-1h-1.85Zm0,2.43H149v-1h-1.85Z"/><path class="cls-7" d="M161.41,372c-2.73,0-5.09,2.41-5.09,4.2,0,1.28,1.62,1.91,3.12,2a14,14,0,0,0-.82,2c-.9-.25-4.07-1.13-4.07-3.77a5,5,0,0,1,2-3.8,31.15,31.15,0,0,0-4.57.69l-.25-2.07a34.88,34.88,0,0,0,4.91-.26,26.14,26.14,0,0,0,4.43-.8Zm-1.83,1.57a7,7,0,0,1,1,1.18c-.3.22-.46.35-.85.67a9.2,9.2,0,0,0-1-1.25Zm1.16-.78a6.77,6.77,0,0,1,1,1.16c-.28.21-.46.37-.81.68a8.34,8.34,0,0,0-1-1.25Z"/><path class="cls-7" d="M167.47,370a6.68,6.68,0,0,0,.19,1.2,8,8,0,0,0,1.92-.82c.27.65.41,1,.61,1.35a8.14,8.14,0,0,1-2.05.9,4.42,4.42,0,0,0,.21.48,9.63,9.63,0,0,0,2.32-1.21c.12.25.74,1.23.86,1.43a10.39,10.39,0,0,1-2.42,1.23,10.23,10.23,0,0,0,1.67,2.1l-1,1.1a6,6,0,0,0-3.15-.93c-.46,0-1.45.16-1.45.8s.6.9,1.92.9a8,8,0,0,0,2.9-.45,4.78,4.78,0,0,0-.12,1.18,2.88,2.88,0,0,0,0,.48,9.53,9.53,0,0,1-2.77.35c-2.84,0-3.76-1.36-3.76-2.42s1.08-2.1,2.94-2.1a11.58,11.58,0,0,1,1.54.12,5.23,5.23,0,0,1-.39-.66,19.93,19.93,0,0,1-3.69.39,5.62,5.62,0,0,1-.71,0l-.19-1.63,1.35,0a13.2,13.2,0,0,0,2.54-.25c-.05-.12-.09-.22-.21-.49a22.06,22.06,0,0,1-2.76.27l-.35-1.55a13.39,13.39,0,0,0,2.53-.18c-.26-.66-.33-.92-.46-1.29Z"/><path class="cls-7" d="M179.91,371.29a26.68,26.68,0,0,0-2.71,2.47,5.62,5.62,0,0,1,1.33-.17,2.87,2.87,0,0,1,3.05,2.91c0,2.43-2.31,3.49-4.22,3.49-1.43,0-2.81-.56-2.81-1.9a2,2,0,0,1,2.17-1.77,2.37,2.37,0,0,1,2.37,1.63,1.47,1.47,0,0,0,.73-1.31A1.59,1.59,0,0,0,178,375c-1.87,0-2.93,1.09-4.46,2.69l-1.33-1.29a28.75,28.75,0,0,0,4.47-4.3,21.58,21.58,0,0,1-2.93.39l-.27-1.73a17.76,17.76,0,0,0,5.52-.7Zm-3.33,6.41c-.37,0-.46.21-.46.4,0,.42.62.59,1,.59a2,2,0,0,0,.56-.09A1.1,1.1,0,0,0,176.58,377.7Z"/><path class="cls-7" d="M183.58,377.4h1.85l-.38,1.87h-1.87Zm3.31-6.83-.54,2.57-1.09,3.25H184.2l.28-3.25.55-2.57Z"/><path class="cls-7" d="M64.43,397v-7H62.35v-2c1.55-.23,2.2-.69,2.67-2.06h2.25v11Z"/><path class="cls-7" d="M76.87,397.15H75.21v-3.74h-.68v3.74H72.87v-3.74h-.69v4.48H70.46v-4.48h-.74v-1.53h.74V388h8.86v3.86h.74v1.53h-.74v3.16c0,1.32-1.1,1.32-1.87,1.32h-.27a3.26,3.26,0,0,0-.31-1.56Zm-4-7.59h-.69v2.32h.69Zm2.34,0h-.68v2.32h.68Zm1.66,2.32h.72v-2.32h-.72Zm0,4.12a2.37,2.37,0,0,0,.44.05c.28,0,.28-.07.28-.46v-2.18h-.72Z"/><path class="cls-7" d="M90.25,390c-3.35.21-4.9,2.65-4.9,3.94,0,1.47,2,1.82,3.05,1.83a17.8,17.8,0,0,0-.75,2.14c-.51-.09-4.39-.78-4.39-3.7a4.82,4.82,0,0,1,2-3.65c-1.51.12-2.59.27-4.49.57l-.3-2.23A39,39,0,0,0,90,388Zm-1.86,1.26a10.47,10.47,0,0,1,1,1.26,9.79,9.79,0,0,0-.85.66,11.57,11.57,0,0,0-1-1.26Zm1.12-.75a7.44,7.44,0,0,1,1,1.23l-.84.65a9,9,0,0,0-1-1.26Z"/><path class="cls-25" d="M95.3,397v-7.54H93.05v-2.17c1.68-.25,2.38-.74,2.88-2.22h2.44V397Z"/><path class="cls-25" d="M100.06,397v-2.83h2.84V397a1.76,1.76,0,0,1-.67,1.4,4.3,4.3,0,0,1-2.17.53v-1c.92-.08,1.22-.28,1.35-.91Z"/><path class="cls-25" d="M112.36,386c1.56,1.64,1.6,4.51,1.6,5.16,0,2.19-.59,6.18-5,6.18-3.93,0-5-3.06-5-6.49,0-1.93.52-6.1,5-6.1A4.87,4.87,0,0,1,112.36,386Zm-3.42,1.26c-1.6,0-1.94,2-1.94,3.78s.34,3.81,1.94,3.81,1.93-2.07,1.93-3.81S110.52,387.27,108.94,387.27Z"/><path class="cls-25" d="M123.52,386c1.56,1.64,1.6,4.51,1.6,5.16,0,2.19-.59,6.18-5,6.18-3.94,0-5-3.06-5-6.49,0-1.93.52-6.1,5-6.1A4.86,4.86,0,0,1,123.52,386Zm-3.41,1.26c-1.61,0-2,2-2,3.78s.34,3.81,2,3.81,1.93-2.07,1.93-3.81S121.68,387.27,120.11,387.27Z"/><path class="cls-25" d="M134.68,386c1.56,1.64,1.61,4.51,1.61,5.16,0,2.19-.6,6.18-5,6.18-3.94,0-5-3.06-5-6.49,0-1.93.52-6.1,5-6.1A4.84,4.84,0,0,1,134.68,386Zm-3.41,1.26c-1.6,0-2,2-2,3.78s.35,3.81,2,3.81,1.93-2.07,1.93-3.81S132.84,387.27,131.27,387.27Z"/><path class="cls-25" d="M139.38,393.8v4.07h-2v-9.78h9.52v8.2c0,1.27-.78,1.65-3,1.55a4,4,0,0,0-.55-2,6,6,0,0,0,1.1.12c.4,0,.42-.13.42-.41V393.8Zm1.85-3.95h-1.85V392h1.85ZM143.1,392H145v-2.18H143.1Z"/><path class="cls-25" d="M150,393.15v-1c-.32.32-.66.6-1,.91a5,5,0,0,0-1.38-1.46,9.53,9.53,0,0,0,3.1-3.62l1.71,1a.2.2,0,0,1,.11.17c0,.11-.08.12-.33.16a13.2,13.2,0,0,1-1.44,2h4.59a8.37,8.37,0,0,1-1.07-1.68H152.9v-1.73h2.84a6,6,0,0,0,2.85,3.69,4.83,4.83,0,0,0-1,1.62,6.55,6.55,0,0,1-.94-.66c-.18,3.74-.2,4.24-.78,4.79-.23.23-.68.61-2.63.55a4.46,4.46,0,0,0-.57-2,7.46,7.46,0,0,0,1.14.11c.46,0,.62-.07.74-.42a14,14,0,0,0,.2-2.42h-1.62a5.25,5.25,0,0,1-1.73,3.45,6.86,6.86,0,0,1-2,1.36,5.22,5.22,0,0,0-1.35-1.62c1.38-.58,2.81-1.19,3.17-3.19Z"/><path class="cls-25" d="M163.66,388c.13,0,.21,0,.21.16s-.13.16-.23.19c0,.22,0,.29,0,.88a10.54,10.54,0,0,0,1.62-.43c0,.2,0,.44,0,1a8.77,8.77,0,0,0,0,.93,13.19,13.19,0,0,1-1.69.4v.72a5.22,5.22,0,0,1,1.6-.25,3.08,3.08,0,0,1,3.34,3.07,2.6,2.6,0,0,1-2.61,2.85c-1.6,0-1.84-1.18-1.9-2.2a8.48,8.48,0,0,0,1.45-.47c0,.45,0,.87.47.87s.66-.42.66-1a1.32,1.32,0,0,0-1.44-1.34,4.8,4.8,0,0,0-1.58.33c0,1.13,0,2.27.14,3.41l-1.68.61a14.85,14.85,0,0,0-2-1.74l-.54.5-.82-2a6.68,6.68,0,0,0,.78-.45,26,26,0,0,1,2.3-1.44c0-.3,0-.39,0-1.28-.79.07-1.5.07-2.18.07v-1.93a5.61,5.61,0,0,0,.83.05c.24,0,.69,0,1.34-.06,0-.71,0-1.19,0-1.79Zm-2.7,7.08c.14.12.48.42.63.42s.13-.09.13-.15a7,7,0,0,0,0-.77C161.46,394.75,161.17,394.92,161,395.08Zm5.85-5.85a9.52,9.52,0,0,1,2.41,1.68,12.21,12.21,0,0,0-1.12,1.44,7.42,7.42,0,0,0-2.38-1.7Z"/><path class="cls-25" d="M173.17,391v-3h6v3.87h-6v-.58a.38.38,0,0,1-.26,0,8.38,8.38,0,0,1-.65.87c.21.15.23.17.23.24s0,.08-.21.23v5.28h-1.81v-4a3.39,3.39,0,0,1-.38.29,2.72,2.72,0,0,0-1-1.36,9.22,9.22,0,0,0,2.62-2.79Zm-.36-2.45a.17.17,0,0,1,.1.14c0,.19-.27.17-.35.17a11.75,11.75,0,0,1-2.3,2,4.25,4.25,0,0,0-1.11-1.27,6.92,6.92,0,0,0,2.28-2Zm1.08,6.57h-1.34v-1.3h4.1v-.37h-3.86V392.2h6.73v1.24h-1v.37h1.23v1.3h-1.23v1.65c0,1.13-1.05,1.18-2.34,1.18a3.28,3.28,0,0,0-.52-1.65,10.44,10.44,0,0,0-1.28.89,6.93,6.93,0,0,0-1.2-1.54Zm.85,0a14.19,14.19,0,0,1,.88,1.14,4.3,4.3,0,0,0,.59.07c.29,0,.44-.06.44-.34v-.87Zm2.7-5.63V389h-2.51v.44Zm-2.51.91v.45h2.51v-.45Z"/><path class="cls-25" d="M181.2,395h2l-.43,2h-2Zm3.49-6.83-.54,2.54L183,394h-1.17l.24-3.26.54-2.54Z"/></g></g></svg>