<svg xmlns="http://www.w3.org/2000/svg" viewBox="0 0 181.87 158.29"><defs><style>.cls-1{fill:#d0121b;}.cls-2{fill:#fffcdb;stroke:#d0121b;stroke-width:6.52px;}.cls-2,.cls-4,.cls-5{stroke-miterlimit:10;}.cls-3{fill:#fff;}.cls-4,.cls-5{fill:none;stroke:#fff;stroke-linecap:round;stroke-width:3.73px;}.cls-5{stroke-dasharray:1.97 5.91;}</style></defs><g id="レイヤー_2" data-name="レイヤー 2"><g id="レイヤー_1-2" data-name="レイヤー 1"><path class="cls-1" d="M117.44,158.29h-53a5,5,0,0,1-4.94-6.13l3.45-12.82h56l3.45,12.82A5,5,0,0,1,117.44,158.29Z"/><path class="cls-2" d="M14.09,58.93A5,5,0,0,0,9,63.64c-.07,1.27-.1,2.54-.1,3.83,0,43.56,36.73,78.88,82.05,78.88S173,111,173,67.47c0-1.29,0-2.56-.1-3.83a5,5,0,0,0-5.1-4.71Z"/><path class="cls-1" d="M72.65,120.29c-1.92-.07-5-.07-8.49-.07a15.53,15.53,0,0,1-10.7,13.15,5.3,5.3,0,0,1-1.52.28,2.21,2.21,0,0,1-2.43-2.06,2,2,0,0,1,1.7-1.92,11.72,11.72,0,0,0,8.71-9.45c-3.77,0-7.51,0-10.27.11h-.07a1.81,1.81,0,1,1,0-3.6c2.58,0,6.54-.1,10.45-.1,0-1.26-.07-2.62-.07-3.63a44.15,44.15,0,0,1-6.28.52c-.54,0-2.68,0-2.68-1.88a1.83,1.83,0,0,1,2-1.78h.25a9,9,0,0,0,1.06,0,39.57,39.57,0,0,0,11.94-2.24,4,4,0,0,1,1.41-.31,1.88,1.88,0,0,1,2,2c0,1.47-.76,1.92-5.41,2.93v1.19c0,1,0,2.13,0,3.21,3.66,0,6.89,0,8.52.07,1.42,0,2.14.9,2.14,1.81a1.92,1.92,0,0,1-2.17,1.78Z"/><path class="cls-1" d="M80,132.64a1.94,1.94,0,0,1-2.1-2,2.3,2.3,0,0,1,1.81-2.19c6-1.61,9.33-6.56,10.27-12.42-2.21,0-4.39,0-6,0-1.74,2.83-4.75,6.42-6.68,6.42a1.84,1.84,0,0,1-1.85-1.88,2.16,2.16,0,0,1,1-1.78c2.58-1.88,5.3-6.63,6.13-10.19a2,2,0,0,1,2-1.56,2.14,2.14,0,0,1,2.28,2,15,15,0,0,1-1,3.38c2.14,0,5,0,7.62,0s5.15,0,6.64.07a1.87,1.87,0,0,1,1.92,1.92,1.74,1.74,0,0,1-1.89,1.77h-.11c-1.27,0-3.33-.1-5.66-.1C92.43,129.43,81.55,132.64,80,132.64Z"/><path class="cls-1" d="M105,124.16a1.81,1.81,0,0,1-1.63-1.08,8.65,8.65,0,0,0-2-2.48,1.35,1.35,0,0,1-.58-1.08,1.81,1.81,0,0,1,1.85-1.67c1.53,0,4.28,3.28,4.28,4.53A1.92,1.92,0,0,1,105,124.16Zm-.61,9.42a1.77,1.77,0,0,1-1.85-1.74,1.71,1.71,0,0,1,1.19-1.64,18.44,18.44,0,0,0,11.18-12.94,1.77,1.77,0,0,1,1.81-1.43,2.06,2.06,0,0,1,2.18,1.88,22.82,22.82,0,0,1-13.39,15.63A2.94,2.94,0,0,1,104.34,133.58Zm5.51-11.06a1.84,1.84,0,0,1-1.74-1.32,8.34,8.34,0,0,0-1.56-2.76,1.47,1.47,0,0,1-.43-1,1.8,1.8,0,0,1,1.85-1.6,2.09,2.09,0,0,1,1.52.76c.65.77,2.32,2.9,2.32,4.15A1.9,1.9,0,0,1,109.85,122.52Z"/><path class="cls-1" d="M126,131.21a2.33,2.33,0,0,1-2.32,2.51,2.08,2.08,0,0,1-2.15-2.2v-.14c.19-3.9.29-11.61.29-17.65,0-2.65,0-5-.07-6.49a2,2,0,0,1,2.14-2,2,2,0,0,1,2.18,2v.07l-.11,7.88c.84,0,6.75,1,9.11,3a2.17,2.17,0,0,1,.83,1.71,2.33,2.33,0,0,1-2.17,2.34,2.19,2.19,0,0,1-1.27-.45A22.48,22.48,0,0,0,126,119C126,123.71,126,128.45,126,131.21Z"/><path class="cls-1" d="M20.37,79.06c-1.62,1.26-2,1.42-2.33,1.42a1.16,1.16,0,0,1-1.14-1.14,1,1,0,0,1,.57-.92A16.21,16.21,0,0,0,23,73a1.05,1.05,0,0,1,.88-.53,1.27,1.27,0,0,1,1.26,1.16,1.08,1.08,0,0,1-.21.62A26.55,26.55,0,0,1,22.62,77l-.26,10.3a1.09,1.09,0,0,1-1.18,1,1,1,0,0,1-1.1-1v0Zm-2-4a1.11,1.11,0,0,1-1.19-1A1.3,1.3,0,0,1,17.92,73a12.72,12.72,0,0,0,4.56-4.43,1.12,1.12,0,0,1,.95-.57,1.11,1.11,0,0,1,.95,1.8C22.46,72.42,19.51,75.05,18.33,75.05Zm16.38,7v1.78l0,1.78v0c0,1.16-1,2.51-3.64,2.51-1,0-2.3,0-2.3-1.16A1,1,0,0,1,29.87,86a1,1,0,0,1,.23,0,6.49,6.49,0,0,0,1.26.16c.76,0,1.31-.25,1.31-1.12v0l-.05-2.93h-8a.87.87,0,1,1,0-1.73h8l0-.82a.83.83,0,0,1,.21-.55H25.35a.87.87,0,1,1,0-1.74H36.73a.87.87,0,1,1,0,1.74H34.5a.8.8,0,0,1,.19.52v.85h2.73a.87.87,0,1,1,0,1.73Zm-1-6c-.78.05-1.78.07-2.78.07-3.11,0-4.91,0-5-2,0-.39,0-.85,0-1.33,0-.75,0-1.55.05-2.21a2.18,2.18,0,0,1,2.32-2c.81,0,1.76,0,2.73,0s1.9,0,2.66,0A2.31,2.31,0,0,1,36,70.48c0,.64.07,1.42.07,2.15,0,.52,0,1.05,0,1.5C36,75.32,35.11,76,33.76,76.07Zm-5.37,9.25a5.82,5.82,0,0,0-2-1.33A.68.68,0,0,1,26,83.4a1.11,1.11,0,0,1,1.12-1c.69,0,3.09,1,3.09,2A1.21,1.21,0,0,1,29,85.61.87.87,0,0,1,28.39,85.32Zm5.54-13.77c0-.13,0-.27,0-.41,0-.87-.14-.89-2.87-.89-.81,0-1.64,0-2.18,0a.79.79,0,0,0-.86.87c0,.11,0,.25,0,.38Zm-6,1.56c0,1.39,0,1.41,2.89,1.41,2.69,0,3,0,3.07-.8,0-.18,0-.41,0-.61Z"/><path class="cls-1" d="M48.44,90.88a1.32,1.32,0,0,1-1.28,1.32,1.27,1.27,0,0,1-.95-.45,11.75,11.75,0,0,0-4.51-2.86A1,1,0,0,1,41,88a1.22,1.22,0,0,1,1.28-1.14,6.23,6.23,0,0,1,2.42.89c1.73-1.8,3.35-4,3.35-4.43,0-.2-.12-.38-.43-.38-1,0-2.4,0-4,0a26.93,26.93,0,0,1-4.87,5.73,1.6,1.6,0,0,1-1.09.43A1.14,1.14,0,0,1,37,87a21.47,21.47,0,0,0,6.22-8.31,1.34,1.34,0,0,1,2.57.35c0,.18,0,.43-.91,1.91,1.29,0,3-.07,4.21-.07s2,.69,2,1.6a2.24,2.24,0,0,1-.38,1.19,35.64,35.64,0,0,1-4,5.14C48.37,90,48.44,90.45,48.44,90.88Z"/><path class="cls-1" d="M74.6,70.28c5.27,0,10.35.08,13,.13a2.16,2.16,0,1,1,0,4.28h-.1c-2.43,0-7.11-.08-11.93-.08-5.9,0-12,0-14.68.08-1.35,0-1.84.7-1.84,1.73-.14,7.93.27,19.36-3.88,26a2.79,2.79,0,0,1-2.43,1.43,2.47,2.47,0,0,1-2.61-2.12,1.81,1.81,0,0,1,.32-1c3.19-4.85,3.69-12.3,3.69-18.79,0-2-.05-4-.09-5.76V76c0-3.72,1.85-5.54,6-5.63,2.25,0,5.54-.08,9.1-.08V67.64a2.69,2.69,0,0,1,5.36,0ZM57.76,96.73A2.77,2.77,0,0,1,58.48,95a15.07,15.07,0,0,0,3-6.32,2.28,2.28,0,0,1,2.35-1.61,2.15,2.15,0,0,1,2.34,2.13c0,.82-2.16,9.65-6,9.65A2.24,2.24,0,0,1,57.76,96.73Zm17.2,7c-4.82,0-7.7-.78-7.7-4.8,0-3.64.18-10,.27-14.94a2.56,2.56,0,0,1,5,0v.09c-.18,4.93-.31,10.56-.36,14.15,0,1.13,1.13,1.21,2.79,1.21,2.3,0,4.32-.08,4.32-3a2.23,2.23,0,0,1,2.39-2.29,2.55,2.55,0,0,1,2.75,2.29C84.46,103.74,78.52,103.78,75,103.78Zm1.21-21.47a15.41,15.41,0,0,0-5.94-2.55,2.07,2.07,0,0,1-1.8-2,2.23,2.23,0,0,1,2.43-2.12c1,0,9.32,1.64,9.32,4.89a2.43,2.43,0,0,1-2.39,2.38A2.55,2.55,0,0,1,76.17,82.31ZM88.33,96.6a2.39,2.39,0,0,1-2.12-1.34,15.16,15.16,0,0,0-5.13-5.5,2.09,2.09,0,0,1-1-1.65A2.44,2.44,0,0,1,82.61,86c2,0,8.6,5.54,8.6,8A2.89,2.89,0,0,1,88.33,96.6Z"/><path class="cls-1" d="M117.1,86.9l-.81,2,8-.13c2,0,3.29,1.21,3.29,2.82,0,1-1.22,3.68-3.78,6.23a28,28,0,0,0,7.47,1.86,2,2,0,0,1,1.94,2,2.46,2.46,0,0,1-2.7,2.34,26.07,26.07,0,0,1-10.31-3.34A27.86,27.86,0,0,1,110,104.43a2,2,0,0,1-2.16-2,1.89,1.89,0,0,1,1.67-1.86,25.31,25.31,0,0,0,7.29-2.47A16.48,16.48,0,0,1,113.63,94c-3.06,5.06-7.07,9-9.28,9a2.46,2.46,0,0,1-2-1.12c-1,1.3-2.61,2.08-5,2.08-1.9,0-4.28-.13-4.28-2.64a2.1,2.1,0,0,1,2-2.26,1.54,1.54,0,0,1,.45,0,8.31,8.31,0,0,0,1.17.13c.81,0,1.67-.26,1.67-1.21v-8.4c-2.48,1.25-3.29,1.3-3.52,1.3a2.46,2.46,0,0,1-2.52-2.38,2.18,2.18,0,0,1,1.49-2c1.71-.69,3.2-1.34,4.55-1.94v-6H95a2.19,2.19,0,1,1,0-4.37l3.25,0,0-6.23a2.37,2.37,0,0,1,2.48-2.38,2.26,2.26,0,0,1,2.38,2.34l0,6.27,2.43,0a2.19,2.19,0,1,1,0,4.37h-2.43v3.59c1.39-.86,1.67-1,2.12-1a2.14,2.14,0,0,1,2.07,2.12,1.73,1.73,0,0,1-.14.65,2,2,0,0,1,1.58-.65h5.18a16.94,16.94,0,0,0,.4-2.08h-4.19a1.83,1.83,0,1,1,0-3.64h1l-.09-.17a5.58,5.58,0,0,0-1.26-1.9,1.5,1.5,0,0,1-.41-1c0-1,1.13-1.77,2.21-1.77,1.49,0,3.2,2.29,3.2,3.5a2.07,2.07,0,0,1-.54,1.35h3.28a1.49,1.49,0,0,1-.63-1,5.89,5.89,0,0,0-.85-2.21,1.13,1.13,0,0,1-.18-.65c0-.65.63-1.12,1.39-1.34-3.69.22-6.84.26-7.79.26a2.19,2.19,0,0,1-2.38-2.16,2,2,0,0,1,2.25-2h.13c.72,0,1.44,0,2.21,0a75.32,75.32,0,0,0,15.13-1.47,2.28,2.28,0,0,1,.58-.05,2.36,2.36,0,0,1,2.44,2.17c0,1.56-1,2.42-11.53,3.12,1.71.21,2.52,2.94,2.52,3.5a2,2,0,0,1-1.22,1.78h2.35a23,23,0,0,0,2.52-5,1.64,1.64,0,0,1,1.66-1c1.22,0,2.57.78,2.57,1.86,0,.78-1.58,3.16-2.25,4.11h2.21c1.48,0,2.2.91,2.2,1.82s-.72,1.82-2.2,1.82h-9.91c-.14.69-.32,1.39-.5,2.12l11.85,0a1.84,1.84,0,1,1,0,3.63ZM103.27,99.11c4.33-2.25,7.57-7.23,9.46-12.21l-4,0a1.82,1.82,0,0,1-2-1.81,2.57,2.57,0,0,1,.09-.61A25.69,25.69,0,0,1,103.05,87v5.24c0,.69.18,4.93.22,6.45Zm19.28-6.75c0-.26-.23-.39-.68-.39-.67,0-3,0-5.09,0a12.71,12.71,0,0,0,3.33,3.72A8.77,8.77,0,0,0,122.55,92.36Z"/><path class="cls-1" d="M139.77,85c-2.8,2.9-5.3,1.89-5.94-1-.5-2.2.64-4.71,2.61-6.51-.16-.48-.33-1-.45-1.48s-.35-1.51-.45-2c-.4-1.89,2.28-1.87,2.38-.25a14.64,14.64,0,0,0,.23,1.89,4.7,4.7,0,0,0,.12.51,2.76,2.76,0,0,1,.48-.25,9.85,9.85,0,0,1,4.06-1,13.57,13.57,0,0,0,.31-2.47c0-1.6,2.44-1.41,2.35.25a15.46,15.46,0,0,1-.34,2.42,6,6,0,0,1,4.78,4.13c1.23,4.23-1.69,7.38-5.8,8.79-1.8.64-3-1.53-.9-2.12,4.13-1.21,5.06-3.84,4.49-6a4.09,4.09,0,0,0-3.06-3.06c-.08.2-.15.43-.24.66A26.35,26.35,0,0,1,142,82.2c.09.07.19.16.3.23a.94.94,0,0,1,.17,1.41,1.17,1.17,0,0,1-1.57.23l-.19-.11A12.11,12.11,0,0,1,139.77,85Zm-2.59-5.57a4.87,4.87,0,0,0-1.33,3.83c.36,1.78,1.47,1.28,2.14.62a16.44,16.44,0,0,0,1.14-1.3A12.37,12.37,0,0,1,137.18,79.44Zm2.3-1.87a4.47,4.47,0,0,0-.69.41,10.14,10.14,0,0,0,1.62,2.78,18,18,0,0,0,1.85-3.7c0-.09.07-.2.1-.32A7.9,7.9,0,0,0,139.48,77.57Z"/><path class="cls-1" d="M152.48,82c-.09-2.4.17-4.34.29-6.76.07-1.48.23-3.72.19-5.14-.05-1.69,2.63-1.55,2.59,0s-.22,3.6-.34,5.13a61.19,61.19,0,0,0-.42,6.72c.14,3.33,4.36,3.1,8.5,0a1.29,1.29,0,1,1,1.63,2C160.29,87.48,152.7,88.14,152.48,82Z"/><path class="cls-1" d="M171.28,48c-4.08-10.35-24.36-25.35-51.14-32.29v-14a1.85,1.85,0,0,0-2-1.72H63.69a1.85,1.85,0,0,0-2,1.72v14C35,22.68,14.67,37.68,10.59,48a2.6,2.6,0,0,0,2.5,3.54H168.78A2.6,2.6,0,0,0,171.28,48Z"/><path class="cls-3" d="M65.56,36.47a.73.73,0,0,1,.77-.56.93.93,0,0,1,1,.67c2.23.42,3.33,1.88,3.33,3.51,0,3.26-3.83,5-5,5-.6,0-.92-.35-.92-.73s.29-.8.94-1c2.1-.67,3.06-2,3.06-3.2A2.24,2.24,0,0,0,67,38a9.63,9.63,0,0,1-2.73,3.76l.12.19a.93.93,0,0,1,.16.51,1,1,0,0,1-.94.93.91.91,0,0,1-.79-.49c-1.63,1.13-2.29,1.22-2.66,1.22-.78,0-1.52-.46-1.52-1.78,0-.3,0-3,3.58-4.9,0-.54.1-1.08.17-1.64H62c-1.34,0-2.18-.2-2.18-1a.81.81,0,0,1,.82-.84,1.63,1.63,0,0,1,.34.06,4,4,0,0,0,1.17.14h.42l.19-1.25a1,1,0,0,1,1-.88.78.78,0,0,1,.84.76s-.13.79-.19,1.12a14.77,14.77,0,0,0,2-.56.79.79,0,0,1,.34-.06.83.83,0,0,1,.85.8c0,.33-.22.66-.79.84a20,20,0,0,1-2.69.67l-.16,1.15a7.13,7.13,0,0,1,1.54-.31Zm-3.46,3v-.3a4,4,0,0,0-1.85,2.77c0,.29.14.4.32.4a5.25,5.25,0,0,0,1.69-.9A10.91,10.91,0,0,1,62.1,39.44Zm1.62-1.14c0,.33,0,.62,0,.92a9.11,9.11,0,0,0,0,.93,6.51,6.51,0,0,0,1.49-2.24A6.8,6.8,0,0,0,63.72,38.3Z"/><path class="cls-3" d="M75.72,41c0,.83.08,2,1.68,2a7.24,7.24,0,0,0,3.89-1.64,1.11,1.11,0,0,1,.7-.25,1,1,0,0,1,1,1,1,1,0,0,1-.41.79,8.77,8.77,0,0,1-5.08,1.88c-1.89,0-3.43-.93-3.51-3.25,0-.26,0-.51,0-.76,0-1.29.13-2.44.19-3.8,0-.86.11-2.12.11-3V33.5a.91.91,0,0,1,1-.94.94.94,0,0,1,1,.88c0,.42-.09,1.94-.22,3.51S75.72,39.65,75.72,41ZM80,36.83a6.13,6.13,0,0,0-1.34-.89c-.34-.14-.48-.36-.48-.57a.83.83,0,0,1,.85-.72c.33,0,2.25.66,2.25,1.54a.88.88,0,0,1-.79.87A.68.68,0,0,1,80,36.83Zm1.78-1.59a5.79,5.79,0,0,0-1.36-.82c-.35-.12-.51-.34-.51-.57a.84.84,0,0,1,.87-.74c.18,0,2.26.58,2.26,1.5a.88.88,0,0,1-.79.85A.61.61,0,0,1,81.81,35.24Z"/><path class="cls-3" d="M90.24,37.56a22.08,22.08,0,0,1-3.1,6.16,1.19,1.19,0,0,1-1,.53.93.93,0,0,1-1-.85,1.18,1.18,0,0,1,.37-.79,14.32,14.32,0,0,0,2.76-4.79,10.22,10.22,0,0,1-1.76.23.84.84,0,0,1-1-.82.92.92,0,0,1,.89-.9c.48,0,1,0,1.56-.08l.74-.06a14.47,14.47,0,0,0,.46-2.34.91.91,0,0,1,1-.81.85.85,0,0,1,.92.81A16.05,16.05,0,0,1,90.67,36L91,36a1.23,1.23,0,0,1,.26,0c1,0,2.3.48,2.3,2.85,0,5-3,5.18-3.59,5.18-1.48,0-1.68-.74-1.68-1a.89.89,0,0,1,.91-.88l.22,0a2.59,2.59,0,0,0,.58.08c1.51,0,1.78-2.18,1.78-3.45,0-.86-.31-1.24-.86-1.24h-.13Zm6.58,2A5.2,5.2,0,0,0,94.65,37a.64.64,0,0,1-.39-.58.81.81,0,0,1,.84-.76c1,0,3.5,2.24,3.5,3.47a1,1,0,0,1-1,1A.83.83,0,0,1,96.82,39.61Zm0-4a6.49,6.49,0,0,0-1.3-.81.59.59,0,0,1-.48-.54.74.74,0,0,1,.78-.65c.22,0,2.13.53,2.13,1.41a.78.78,0,0,1-.71.78A.58.58,0,0,1,96.86,35.66Zm1.43-1.54a5.82,5.82,0,0,0-1.3-.71c-.36-.11-.51-.33-.51-.54a.77.77,0,0,1,.8-.7c.08,0,2.14.43,2.14,1.33a.8.8,0,0,1-.72.8A.58.58,0,0,1,98.29,34.12Z"/><path class="cls-3" d="M107.08,34.79c.22-.08.38-.2.61-.31a1.73,1.73,0,0,1,.71-.18.85.85,0,0,1,.9.87c0,.65-.41.82-1.77,1.35.34.54.69,1.07,1,1.55a7.37,7.37,0,0,1,1.22,2.72.89.89,0,0,1-.93,1,1.87,1.87,0,0,1-1-.31c-.2-.13-.74-.47-2.83-.47-1.11,0-2.39.17-2.39.92s2,1.12,3.25,1.12l.45,0c.71,0,1.21.28,1.21.85s-.45,1-1.31,1c-1.6,0-5.37-.45-5.37-3a2.39,2.39,0,0,1,2.24-2.26,12.11,12.11,0,0,1,2.26-.18c.68,0,1.26,0,1.66,0,.15,0,.2,0,.2-.14a2.05,2.05,0,0,0-.32-.79c-.28-.45-.63-1-1-1.55a11.64,11.64,0,0,1-2.3.28c-1.17,0-2.93-.33-2.93-1.4a.78.78,0,0,1,.8-.81,1.44,1.44,0,0,1,.56.14,3.52,3.52,0,0,0,1.6.37,5.38,5.38,0,0,0,1.26-.15c-.94-1.48-1-1.66-1-2a.85.85,0,0,1,.91-.81,1,1,0,0,1,1,.77,7.69,7.69,0,0,0,.76,1.53Z"/><path class="cls-3" d="M114.17,43.23a1.06,1.06,0,0,1-.93.59.94.94,0,0,1-.95-.89c0-.14,0-.43.67-1.21a23.64,23.64,0,0,0,1.86-3.14,4.9,4.9,0,0,0,.24-.63c0-.05,0-.08-.09-.08a.49.49,0,0,0-.18,0,7.32,7.32,0,0,0-.86.53,1.27,1.27,0,0,1-.64.2.79.79,0,0,1-.78-.83.91.91,0,0,1,.55-.83c.57-.25,1.41-.62,2.21-.94.12-1.09.21-2.06.26-2.69a.87.87,0,0,1,.92-.84.83.83,0,0,1,.9.76s0,.08,0,.12c-.08.53-.19,1.25-.29,2.07a.86.86,0,0,1,.76.9,1.78,1.78,0,0,1-.42,1.07c0,.07-.21.34-.44.72a8.23,8.23,0,0,1,4.44-1.49c2.26,0,3.94,1.27,3.94,3,0,2.83-4.15,4.65-4.89,4.65a1,1,0,0,1-1-1,1,1,0,0,1,.76-.9,8.15,8.15,0,0,0,1.68-.73c1.08-.68,1.5-1.4,1.5-2s-.35-1.4-2-1.4a8.25,8.25,0,0,0-4.71,2c0,.43,0,.85,0,1.27a13.5,13.5,0,0,0,.16,2.34,1.55,1.55,0,0,1,0,.21,1,1,0,0,1-1,.94c-1,0-1-1-1-1.89,0-.28,0-.59,0-.92Z"/><line class="cls-4" x1="131.74" y1="40.89" x2="132.67" y2="40.89"/><line class="cls-5" x1="138.58" y1="40.89" x2="151.38" y2="40.89"/><line class="cls-4" x1="154.34" y1="40.89" x2="155.27" y2="40.89"/><line class="cls-4" x1="26.6" y1="40.89" x2="27.53" y2="40.89"/><line class="cls-5" x1="33.44" y1="40.89" x2="46.25" y2="40.89"/><line class="cls-4" x1="49.2" y1="40.89" x2="50.14" y2="40.89"/><path class="cls-1" d="M154.82,110.56c.62-1,1.14-2.75-.19-5.21-2.11-3.9-12.15-11.64-12.57-11.95s-1.47-1-1.65-.8.42.93.94,1.44,7.56,7.68,7.56,7.68c.49.5.72,1.07.5,1.26s-.79,0-1.27-.55c0,0-7.14-7.21-7.6-7.65-.71-.66-1.39-1-1.59-.87s.21.91.82,1.57c.41.45,7.5,7.73,7.5,7.73.49.5.72,1.06.5,1.26s-.78-.06-1.27-.55c0,0-7.17-7.22-7.61-7.65-.73-.71-1.38-1-1.58-.86s.18.84.82,1.56c.4.46,7.51,7.73,7.51,7.73.48.5.71,1.06.5,1.26s-.73,0-1.2-.48l-.07-.08s-7.15-7.27-7.57-7.68-1.27-1.13-1.44-1,.42,1.1.79,1.61,7.79,10.64,11.69,12.71c2.54,1.34,4.43,1,5.44.45,5.44,6,25,30,27.85,27.4S160.79,116.14,154.82,110.56Z"/><path class="cls-1" d="M29.75,97.89C26.31,102,27,106.2,28,108.12c-6.72,6.61-30.94,28-27.75,30.79s23.2-22.39,29.37-29.41A10.22,10.22,0,0,0,40,106.85c4.32-4.08,6.43-10.23,3.08-13.16S33.57,93.36,29.75,97.89Z"/></g></g></svg>